<svg xmlns="http://www.w3.org/2000/svg" style="position:absolute; height:0; width:0;">
    <symbol id="site-video2" viewBox="0 0 12 15"><path d="M0 14.1591V1.32442C0 0.770081 0.61212 0.436034 1.07798 0.733968L11.1102 7.15129C11.5418 7.42756 11.5418 8.05593 11.1102 8.3322L1.07798 14.7495C0.61212 15.0475 0 14.7134 0 14.1591Z" fill="#FFB23F"/></symbol>

    <symbol id="site-menu" viewBox="0 0 24 24"><path fill-rule="evenodd" clip-rule="evenodd" d="M12.0001 7.20002C10.6746 7.20002 9.6001 6.12551 9.6001 4.80002C9.6001 3.47454 10.6746 2.40002 12.0001 2.40002C13.3256 2.40002 14.4001 3.47454 14.4001 4.80002C14.4001 6.12551 13.3256 7.20002 12.0001 7.20002ZM12.0001 14.4C10.6746 14.4 9.6001 13.3255 9.6001 12C9.6001 10.6745 10.6746 9.59998 12.0001 9.59998C13.3256 9.59998 14.4001 10.6745 14.4001 12C14.4001 13.3255 13.3256 14.4 12.0001 14.4ZM9.6001 19.2C9.6001 20.5255 10.6746 21.6 12.0001 21.6C13.3256 21.6 14.4001 20.5255 14.4001 19.2C14.4001 17.8745 13.3256 16.8 12.0001 16.8C10.6746 16.8 9.6001 17.8745 9.6001 19.2Z"/></symbol>
    
    <symbol id="site-cursor" viewBox="0 0 9 5"><path d="M4.43334 4.69978C4.33683 4.70034 4.24116 4.68184 4.15181 4.64535C4.06246 4.60885 3.98119 4.55508 3.91267 4.48712L0.979339 1.55378C0.84125 1.41569 0.763672 1.2284 0.763672 1.03312C0.763672 0.837829 0.84125 0.65054 0.979339 0.51245C1.11743 0.374361 1.30472 0.296783 1.50001 0.296783C1.69529 0.296783 1.88258 0.374361 2.02067 0.51245L4.43334 2.93245L6.84601 0.519784C6.98629 0.399644 7.16675 0.336866 7.35131 0.343995C7.53587 0.351124 7.71095 0.427635 7.84155 0.558237C7.97215 0.68884 8.04866 0.863915 8.05579 1.04848C8.06292 1.23304 8.00014 1.4135 7.88001 1.55378L4.94667 4.48712C4.81008 4.6226 4.62572 4.69897 4.43334 4.69978Z"/></symbol>
    
    <symbol id="site-cursor1" viewBox="0 0 18 17" fill="none"><path d="M1 8.4353L14.7232 8.29845M9.61818 1.91125L16.1412 8.43424L9.48677 15.0886" stroke-width="2" stroke-linecap="square" stroke-linejoin="round"/></symbol>
    
    <symbol id="site-cursor2" viewBox="0 0 20 12"><path fill-rule="evenodd" clip-rule="evenodd" d="M12.3515 0.351468C12.8201 -0.117156 13.5799 -0.117156 14.0485 0.351468L18.8485 5.15147C19.3171 5.6201 19.3171 6.37992 18.8485 6.84852L14.0485 11.6485C13.5799 12.1171 12.8201 12.1171 12.3515 11.6485C11.8829 11.1799 11.8829 10.4201 12.3515 9.95148L15.103 7.2H1.2C0.537264 7.2 0 6.66276 0 6C0 5.33726 0.537264 4.8 1.2 4.8H15.103L12.3515 2.04853C11.8829 1.5799 11.8829 0.820104 12.3515 0.351468Z" /></symbol>
    
    <symbol id="site-basket" viewBox="0 0 21 20" fill="none"><path d="M2.20253 3.48429H20L17.1899 13.4214H5.01266L2.20253 3.48429ZM2.20253 3.48429L1.5 1" stroke-width="1.63235" stroke-linecap="round" stroke-linejoin="round"/><path d="M9.6963 16.8994C9.6963 17.7226 9.06721 18.39 8.29124 18.39C7.51524 18.39 6.88618 17.7226 6.88618 16.8994" stroke-width="1.63235" stroke-linecap="round" stroke-linejoin="round"/><path d="M15.3166 16.8994C15.3166 17.7226 14.6875 18.39 13.9115 18.39C13.1355 18.39 12.5064 17.7226 12.5064 16.8994" stroke-width="1.63235" stroke-linecap="round" stroke-linejoin="round"/></symbol>
    
    <symbol id="site-close" viewBox="0 0 50 50"><path d="M 7.71875 6.28125 L 6.28125 7.71875 L 23.5625 25 L 6.28125 42.28125 L 7.71875 43.71875 L 25 26.4375 L 42.28125 43.71875 L 43.71875 42.28125 L 26.4375 25 L 43.71875 7.71875 L 42.28125 6.28125 L 25 23.5625 Z"/></symbol>
    
    <symbol id="site-close2" viewBox="0 0 10 10"><path fill-rule="evenodd" clip-rule="evenodd" d="M0.46967 0.46967C0.762563 0.176777 1.23744 0.176777 1.53033 0.46967L5 3.93934L8.46967 0.46967C8.76256 0.176777 9.23744 0.176777 9.53033 0.46967C9.82322 0.762563 9.82322 1.23744 9.53033 1.53033L6.06066 5L9.53033 8.46967C9.82322 8.76256 9.82322 9.23744 9.53033 9.53033C9.23744 9.82322 8.76256 9.82322 8.46967 9.53033L5 6.06066L1.53033 9.53033C1.23744 9.82322 0.762563 9.82322 0.46967 9.53033C0.176777 9.23744 0.176777 8.76256 0.46967 8.46967L3.93934 5L0.46967 1.53033C0.176777 1.23744 0.176777 0.762563 0.46967 0.46967Z"/></symbol>
    
    <symbol id="site-logo1" viewBox="0 0 69 45"><path d="M2.7176 2.52H4.1696V21H2.7176V2.52ZM7.7336 21H3.5096V19.548H7.7336C8.8776 19.548 9.916 19.3632 10.8488 18.9936C11.7992 18.624 12.6088 18.1048 13.2776 17.436C13.9464 16.7496 14.4568 15.9312 14.8088 14.9808C15.1784 14.0128 15.3632 12.9392 15.3632 11.76C15.3632 10.5808 15.1784 9.516 14.8088 8.5656C14.4568 7.5976 13.9464 6.7792 13.2776 6.1104C12.6088 5.424 11.7992 4.896 10.8488 4.5264C9.916 4.1568 8.8776 3.972 7.7336 3.972H3.5096V2.52H7.7336C9.5288 2.52 11.104 2.9072 12.4592 3.6816C13.832 4.456 14.8968 5.5384 15.6536 6.9288C16.428 8.3016 16.8152 9.912 16.8152 11.76C16.8152 13.608 16.428 15.2272 15.6536 16.6176C14.8968 17.9904 13.832 19.064 12.4592 19.8384C11.104 20.6128 9.5288 21 7.7336 21ZM20.2765 17.3568C20.2765 17.9552 20.4085 18.4568 20.6725 18.8616C20.9541 19.2664 21.3237 19.5744 21.7813 19.7856C22.2565 19.9792 22.7757 20.076 23.3389 20.076C24.0253 20.076 24.6501 19.9176 25.2133 19.6008C25.7941 19.284 26.2605 18.8176 26.6125 18.2016C26.9645 17.5856 27.1405 16.8288 27.1405 15.9312L27.4573 17.0928C27.4573 18.0432 27.2285 18.8264 26.7709 19.4424C26.3133 20.0584 25.7413 20.516 25.0549 20.8152C24.3685 21.1144 23.6733 21.264 22.9693 21.264C22.2829 21.264 21.6229 21.1232 20.9893 20.8416C20.3557 20.5424 19.8453 20.1112 19.4581 19.548C19.0709 18.9848 18.8773 18.272 18.8773 17.4096C18.8773 16.2304 19.2821 15.2976 20.0917 14.6112C20.9189 13.9248 22.0365 13.5816 23.4445 13.5816C24.2365 13.5816 24.9141 13.6784 25.4773 13.872C26.0581 14.048 26.5333 14.2504 26.9029 14.4792C27.2725 14.708 27.5365 14.9016 27.6949 15.06V15.9312C27.0965 15.5088 26.4541 15.2008 25.7677 15.0072C25.0989 14.796 24.3949 14.6904 23.6557 14.6904C22.9693 14.6904 22.3709 14.7872 21.8605 14.9808C21.3677 15.1744 20.9805 15.4648 20.6989 15.852C20.4173 16.2392 20.2765 16.7408 20.2765 17.3568ZM20.3293 11.0736L19.6429 10.044C20.1005 9.7272 20.6901 9.4104 21.4117 9.0936C22.1509 8.7592 23.0573 8.592 24.1309 8.592C25.0461 8.592 25.8293 8.7416 26.4805 9.0408C27.1317 9.34 27.6333 9.7712 27.9853 10.3344C28.3373 10.8976 28.5133 11.584 28.5133 12.3936V21H27.1405V12.5784C27.1405 12.2264 27.0877 11.892 26.9821 11.5752C26.8765 11.2408 26.7005 10.9416 26.4541 10.6776C26.2253 10.4136 25.9085 10.2024 25.5037 10.044C25.0989 9.8856 24.6061 9.8064 24.0253 9.8064C23.4269 9.8064 22.8901 9.8768 22.4149 10.0176C21.9397 10.1584 21.5261 10.3256 21.1741 10.5192C20.8397 10.7128 20.5581 10.8976 20.3293 11.0736ZM32.1536 0.407999H33.5264V21H32.1536V0.407999ZM38.7272 8.856H40.496L34.7672 13.872L40.9976 21H39.2552L33.0248 13.872L38.7272 8.856ZM43.1647 17.5416C43.3407 17.9816 43.5783 18.3864 43.8775 18.756C44.1767 19.1256 44.5551 19.4248 45.0127 19.6536C45.4879 19.8824 46.0423 19.9968 46.6759 19.9968C47.4151 19.9968 48.0047 19.812 48.4447 19.4424C48.9023 19.0552 49.1311 18.5272 49.1311 17.8584C49.1311 17.3656 48.9903 16.9608 48.7087 16.644C48.4271 16.3096 48.0575 16.0368 47.5999 15.8256C47.1423 15.5968 46.6495 15.3944 46.1215 15.2184C45.5583 15.0072 45.0127 14.7696 44.4847 14.5056C43.9567 14.2416 43.5167 13.8896 43.1647 13.4496C42.8303 12.992 42.6631 12.4024 42.6631 11.6808C42.6631 10.9944 42.8303 10.4224 43.1647 9.9648C43.5167 9.5072 43.9655 9.1728 44.5111 8.9616C45.0743 8.7328 45.6727 8.6184 46.3063 8.6184C46.9927 8.6184 47.6087 8.7328 48.1543 8.9616C48.6999 9.1904 49.1663 9.4896 49.5535 9.8592C49.9407 10.2288 50.2399 10.6424 50.4511 11.1L49.3159 11.7864C49.0343 11.2584 48.6383 10.8008 48.1279 10.4136C47.6175 10.0264 46.9575 9.8328 46.1479 9.8328C45.5495 9.8328 45.0391 9.9824 44.6167 10.2816C44.2119 10.5808 44.0095 11.0208 44.0095 11.6016C44.0095 12.0768 44.1415 12.4728 44.4055 12.7896C44.6695 13.0888 45.0215 13.3352 45.4615 13.5288C45.9015 13.7224 46.3679 13.9072 46.8607 14.0832C47.5119 14.3296 48.1103 14.6024 48.6559 14.9016C49.2191 15.2008 49.6679 15.5704 50.0023 16.0104C50.3543 16.4504 50.5303 17.0136 50.5303 17.7C50.5303 18.756 50.1607 19.6184 49.4215 20.2872C48.6999 20.9384 47.7583 21.264 46.5967 21.264C45.7519 21.264 45.0127 21.1144 44.3791 20.8152C43.7631 20.516 43.2615 20.1288 42.8743 19.6536C42.5047 19.1784 42.2319 18.6856 42.0559 18.1752L43.1647 17.5416ZM19.2704 37.9016L23.6 25.52H27.2168L19.6664 44.9768L13.964 31.9088L8.2616 44.9768L0.7112 25.52H4.328L8.7104 37.9016L13.964 24.596L19.2704 37.9016ZM26.1992 37.928C26.1992 36.6784 26.4808 35.5784 27.044 34.628C27.6248 33.6776 28.408 32.9384 29.3936 32.4104C30.3792 31.8648 31.4968 31.592 32.7464 31.592C33.996 31.592 35.1048 31.8648 36.0728 32.4104C37.0584 32.9384 37.8416 33.6776 38.4224 34.628C39.0032 35.5784 39.2936 36.6784 39.2936 37.928C39.2936 39.16 39.0032 40.26 38.4224 41.228C37.8416 42.1784 37.0584 42.9264 36.0728 43.472C35.1048 44 33.996 44.264 32.7464 44.264C31.4968 44.264 30.3792 44 29.3936 43.472C28.408 42.9264 27.6248 42.1784 27.044 41.228C26.4808 40.26 26.1992 39.16 26.1992 37.928ZM29.1296 37.928C29.1296 38.6848 29.288 39.3536 29.6048 39.9344C29.9216 40.4976 30.3528 40.9464 30.8984 41.2808C31.444 41.5976 32.06 41.756 32.7464 41.756C33.4152 41.756 34.0224 41.5976 34.568 41.2808C35.1312 40.9464 35.5712 40.4976 35.888 39.9344C36.2048 39.3536 36.3632 38.6848 36.3632 37.928C36.3632 37.1712 36.2048 36.5024 35.888 35.9216C35.5712 35.3408 35.1312 34.892 34.568 34.5752C34.0224 34.2584 33.4152 34.1 32.7464 34.1C32.06 34.1 31.444 34.2584 30.8984 34.5752C30.3528 34.892 29.9216 35.3408 29.6048 35.9216C29.288 36.5024 29.1296 37.1712 29.1296 37.928ZM41.0749 37.928C41.0749 36.6784 41.3565 35.5784 41.9197 34.628C42.5005 33.6776 43.2837 32.9384 44.2693 32.4104C45.2549 31.8648 46.3725 31.592 47.6221 31.592C48.8717 31.592 49.9805 31.8648 50.9485 32.4104C51.9341 32.9384 52.7173 33.6776 53.2981 34.628C53.8789 35.5784 54.1693 36.6784 54.1693 37.928C54.1693 39.16 53.8789 40.26 53.2981 41.228C52.7173 42.1784 51.9341 42.9264 50.9485 43.472C49.9805 44 48.8717 44.264 47.6221 44.264C46.3725 44.264 45.2549 44 44.2693 43.472C43.2837 42.9264 42.5005 42.1784 41.9197 41.228C41.3565 40.26 41.0749 39.16 41.0749 37.928ZM44.0053 37.928C44.0053 38.6848 44.1637 39.3536 44.4805 39.9344C44.7973 40.4976 45.2285 40.9464 45.7741 41.2808C46.3197 41.5976 46.9357 41.756 47.6221 41.756C48.2909 41.756 48.8981 41.5976 49.4437 41.2808C50.0069 40.9464 50.4469 40.4976 50.7637 39.9344C51.0805 39.3536 51.2389 38.6848 51.2389 37.928C51.2389 37.1712 51.0805 36.5024 50.7637 35.9216C50.4469 35.3408 50.0069 34.892 49.4437 34.5752C48.8981 34.2584 48.2909 34.1 47.6221 34.1C46.9357 34.1 46.3197 34.2584 45.7741 34.5752C45.2285 34.892 44.7973 35.3408 44.4805 35.9216C44.1637 36.5024 44.0053 37.1712 44.0053 37.928ZM66.0091 23.408H68.8867V44H66.0091V23.408ZM55.9507 37.928C55.9507 36.5904 56.2235 35.4552 56.7691 34.5224C57.3147 33.572 58.0363 32.8504 58.9339 32.3576C59.8491 31.8472 60.8259 31.592 61.8643 31.592C62.8851 31.592 63.7739 31.8472 64.5307 32.3576C65.3051 32.868 65.9123 33.5984 66.3523 34.5488C66.8099 35.4816 67.0387 36.608 67.0387 37.928C67.0387 39.2304 66.8099 40.3568 66.3523 41.3072C65.9123 42.2576 65.3051 42.988 64.5307 43.4984C63.7739 44.0088 62.8851 44.264 61.8643 44.264C60.8259 44.264 59.8491 44.0176 58.9339 43.5248C58.0363 43.0144 57.3147 42.284 56.7691 41.3336C56.2235 40.3832 55.9507 39.248 55.9507 37.928ZM58.9075 37.928C58.9075 38.7376 59.0747 39.4328 59.4091 40.0136C59.7435 40.5944 60.1835 41.0344 60.7291 41.3336C61.2923 41.6328 61.8995 41.7824 62.5507 41.7824C63.0963 41.7824 63.6331 41.6328 64.1611 41.3336C64.7067 41.0344 65.1467 40.6032 65.4811 40.04C65.8331 39.4592 66.0091 38.7552 66.0091 37.928C66.0091 37.1008 65.8331 36.4056 65.4811 35.8424C65.1467 35.2616 64.7067 34.8216 64.1611 34.5224C63.6331 34.2232 63.0963 34.0736 62.5507 34.0736C61.8995 34.0736 61.2923 34.2232 60.7291 34.5224C60.1835 34.8216 59.7435 35.2616 59.4091 35.8424C59.0747 36.4232 58.9075 37.1184 58.9075 37.928Z" fill="#333333" fill-opacity="0.1"/></symbol>
    
    <symbol id="site-logo2" viewBox="0 0 236 38"><path d="M0.42 4.5H6.99V36H0.42V4.5ZM11.13 36H4.56V30.15H10.905C12.285 30.15 13.59 29.97 14.82 29.61C16.05 29.22 17.13 28.62 18.06 27.81C18.99 27 19.71 25.98 20.22 24.75C20.76 23.49 21.03 21.99 21.03 20.25C21.03 18.51 20.76 17.025 20.22 15.795C19.71 14.535 18.99 13.5 18.06 12.69C17.13 11.88 16.05 11.295 14.82 10.935C13.59 10.545 12.285 10.35 10.905 10.35H4.56V4.5H11.13C14.43 4.5 17.31 5.145 19.77 6.435C22.26 7.725 24.195 9.555 25.575 11.925C26.955 14.265 27.645 17.04 27.645 20.25C27.645 23.46 26.955 26.25 25.575 28.62C24.195 30.96 22.26 32.775 19.77 34.065C17.31 35.355 14.43 36 11.13 36ZM35.6346 28.845L36.3996 23.76H51.5196L52.2846 28.845H35.6346ZM43.8696 14.715L39.1446 25.56L39.2796 27L35.1396 36H27.8946L43.8696 2.655L59.8446 36H52.5546L48.5046 27.27L48.5946 25.65L43.8696 14.715ZM63.2618 4.5H69.8768V36H63.2618V4.5ZM81.0818 4.5H88.7318L75.6818 19.26L89.4068 36H81.5768L67.9868 19.44L81.0818 4.5ZM95.6259 25.425C96.2859 26.595 97.0059 27.615 97.7859 28.485C98.5959 29.355 99.4809 30.03 100.441 30.51C101.401 30.99 102.436 31.23 103.546 31.23C104.836 31.23 105.886 30.9 106.696 30.24C107.506 29.58 107.911 28.68 107.911 27.54C107.911 26.55 107.656 25.755 107.146 25.155C106.666 24.555 105.931 24.03 104.941 23.58C103.981 23.1 102.796 22.59 101.386 22.05C100.636 21.78 99.7659 21.42 98.7759 20.97C97.8159 20.49 96.9009 19.89 96.0309 19.17C95.1609 18.42 94.4409 17.52 93.8709 16.47C93.3009 15.39 93.0159 14.1 93.0159 12.6C93.0159 10.8 93.4659 9.255 94.3659 7.965C95.2959 6.645 96.5409 5.64 98.1009 4.95C99.6909 4.23 101.461 3.87 103.411 3.87C105.421 3.87 107.146 4.215 108.586 4.905C110.056 5.565 111.271 6.42 112.231 7.47C113.221 8.49 113.986 9.555 114.526 10.665L109.486 13.455C109.066 12.705 108.556 12.03 107.956 11.43C107.386 10.8 106.726 10.305 105.976 9.945C105.226 9.555 104.371 9.36 103.411 9.36C102.151 9.36 101.206 9.66 100.576 10.26C99.9459 10.83 99.6309 11.505 99.6309 12.285C99.6309 13.065 99.8859 13.755 100.396 14.355C100.906 14.925 101.686 15.48 102.736 16.02C103.786 16.53 105.106 17.055 106.696 17.595C107.716 17.955 108.691 18.405 109.621 18.945C110.581 19.485 111.436 20.145 112.186 20.925C112.966 21.675 113.566 22.575 113.986 23.625C114.436 24.645 114.661 25.83 114.661 27.18C114.661 28.71 114.361 30.075 113.761 31.275C113.161 32.475 112.336 33.495 111.286 34.335C110.236 35.145 109.051 35.76 107.731 36.18C106.441 36.63 105.076 36.855 103.636 36.855C101.716 36.855 99.9159 36.495 98.2359 35.775C96.5859 35.025 95.1459 34.02 93.9159 32.76C92.6859 31.5 91.7259 30.135 91.0359 28.665L95.6259 25.425ZM148.797 24.075L155.547 4.5H163.107L149.832 37.755L139.932 17.055L129.987 37.755L116.757 4.5H124.317L131.157 24.075L139.932 2.925L148.797 24.075ZM161.214 25.65C161.214 23.49 161.709 21.6 162.699 19.98C163.719 18.36 165.084 17.1 166.794 16.2C168.534 15.3 170.499 14.85 172.689 14.85C174.879 14.85 176.829 15.3 178.539 16.2C180.279 17.1 181.644 18.36 182.634 19.98C183.654 21.6 184.164 23.49 184.164 25.65C184.164 27.78 183.654 29.67 182.634 31.32C181.644 32.94 180.279 34.2 178.539 35.1C176.829 36 174.879 36.45 172.689 36.45C170.499 36.45 168.534 36 166.794 35.1C165.084 34.2 163.719 32.94 162.699 31.32C161.709 29.67 161.214 27.78 161.214 25.65ZM167.154 25.65C167.154 26.82 167.394 27.855 167.874 28.755C168.384 29.625 169.059 30.315 169.899 30.825C170.739 31.305 171.669 31.545 172.689 31.545C173.709 31.545 174.639 31.305 175.479 30.825C176.319 30.315 176.979 29.625 177.459 28.755C177.969 27.855 178.224 26.82 178.224 25.65C178.224 24.48 177.969 23.445 177.459 22.545C176.979 21.645 176.319 20.955 175.479 20.475C174.639 19.995 173.709 19.755 172.689 19.755C171.669 19.755 170.739 19.995 169.899 20.475C169.059 20.955 168.384 21.645 167.874 22.545C167.394 23.445 167.154 24.48 167.154 25.65ZM187.142 25.65C187.142 23.49 187.637 21.6 188.627 19.98C189.647 18.36 191.012 17.1 192.722 16.2C194.462 15.3 196.427 14.85 198.617 14.85C200.807 14.85 202.757 15.3 204.467 16.2C206.207 17.1 207.572 18.36 208.562 19.98C209.582 21.6 210.092 23.49 210.092 25.65C210.092 27.78 209.582 29.67 208.562 31.32C207.572 32.94 206.207 34.2 204.467 35.1C202.757 36 200.807 36.45 198.617 36.45C196.427 36.45 194.462 36 192.722 35.1C191.012 34.2 189.647 32.94 188.627 31.32C187.637 29.67 187.142 27.78 187.142 25.65ZM193.082 25.65C193.082 26.82 193.322 27.855 193.802 28.755C194.312 29.625 194.987 30.315 195.827 30.825C196.667 31.305 197.597 31.545 198.617 31.545C199.637 31.545 200.567 31.305 201.407 30.825C202.247 30.315 202.907 29.625 203.387 28.755C203.897 27.855 204.152 26.82 204.152 25.65C204.152 24.48 203.897 23.445 203.387 22.545C202.907 21.645 202.247 20.955 201.407 20.475C200.567 19.995 199.637 19.755 198.617 19.755C197.597 19.755 196.667 19.995 195.827 20.475C194.987 20.955 194.312 21.645 193.802 22.545C193.322 23.445 193.082 24.48 193.082 25.65ZM230.08 0.899999H235.93V36H230.08V0.899999ZM213.07 25.65C213.07 23.34 213.535 21.39 214.465 19.8C215.395 18.18 216.625 16.95 218.155 16.11C219.685 15.27 221.305 14.85 223.015 14.85C224.755 14.85 226.285 15.285 227.605 16.155C228.955 17.025 230.005 18.27 230.755 19.89C231.535 21.48 231.925 23.4 231.925 25.65C231.925 27.87 231.535 29.79 230.755 31.41C230.005 33.03 228.955 34.275 227.605 35.145C226.285 36.015 224.755 36.45 223.015 36.45C221.305 36.45 219.685 36.03 218.155 35.19C216.625 34.35 215.395 33.12 214.465 31.5C213.535 29.88 213.07 27.93 213.07 25.65ZM219.1 25.65C219.1 26.88 219.355 27.945 219.865 28.845C220.375 29.745 221.065 30.435 221.935 30.915C222.805 31.395 223.735 31.635 224.725 31.635C225.595 31.635 226.435 31.41 227.245 30.96C228.085 30.48 228.76 29.79 229.27 28.89C229.81 27.99 230.08 26.91 230.08 25.65C230.08 24.39 229.81 23.31 229.27 22.41C228.76 21.51 228.085 20.835 227.245 20.385C226.435 19.905 225.595 19.665 224.725 19.665C223.735 19.665 222.805 19.905 221.935 20.385C221.065 20.865 220.375 21.555 219.865 22.455C219.355 23.355 219.1 24.42 219.1 25.65Z"/></symbol>
    
    <symbol id="site-logo3" viewBox="0 0 176 94"><path d="M4.104 3.2H11.988V41H4.104V3.2ZM16.956 41H9.072V33.98H16.686C18.342 33.98 19.908 33.764 21.384 33.332C22.86 32.864 24.156 32.144 25.272 31.172C26.388 30.2 27.252 28.976 27.864 27.5C28.512 25.988 28.836 24.188 28.836 22.1C28.836 20.012 28.512 18.23 27.864 16.754C27.252 15.242 26.388 14 25.272 13.028C24.156 12.056 22.86 11.354 21.384 10.922C19.908 10.454 18.342 10.22 16.686 10.22H9.072V3.2H16.956C20.916 3.2 24.372 3.974 27.324 5.522C30.312 7.07 32.634 9.266 34.29 12.11C35.946 14.918 36.774 18.248 36.774 22.1C36.774 25.952 35.946 29.3 34.29 32.144C32.634 34.952 30.312 37.13 27.324 38.678C24.372 40.226 20.916 41 16.956 41ZM46.3615 32.414L47.2795 26.312H65.4235L66.3415 32.414H46.3615ZM56.2435 15.458L50.5735 28.472L50.7355 30.2L45.7675 41H37.0735L56.2435 0.985997L75.4135 41H66.6655L61.8055 30.524L61.9135 28.58L56.2435 15.458ZM79.5142 3.2H87.4522V41H79.5142V3.2ZM100.898 3.2H110.078L94.4182 20.912L110.888 41H101.492L85.1842 21.128L100.898 3.2ZM118.351 28.31C119.143 29.714 120.007 30.938 120.943 31.982C121.915 33.026 122.977 33.836 124.129 34.412C125.281 34.988 126.523 35.276 127.855 35.276C129.403 35.276 130.663 34.88 131.635 34.088C132.607 33.296 133.093 32.216 133.093 30.848C133.093 29.66 132.787 28.706 132.175 27.986C131.599 27.266 130.717 26.636 129.529 26.096C128.377 25.52 126.955 24.908 125.263 24.26C124.363 23.936 123.319 23.504 122.131 22.964C120.979 22.388 119.881 21.668 118.837 20.804C117.793 19.904 116.929 18.824 116.245 17.564C115.561 16.268 115.219 14.72 115.219 12.92C115.219 10.76 115.759 8.906 116.839 7.358C117.955 5.774 119.449 4.568 121.321 3.74C123.229 2.876 125.353 2.444 127.693 2.444C130.105 2.444 132.175 2.858 133.903 3.686C135.667 4.478 137.125 5.504 138.277 6.764C139.465 7.988 140.383 9.266 141.031 10.598L134.983 13.946C134.479 13.046 133.867 12.236 133.147 11.516C132.463 10.76 131.671 10.166 130.771 9.734C129.871 9.266 128.845 9.032 127.693 9.032C126.181 9.032 125.047 9.392 124.291 10.112C123.535 10.796 123.157 11.606 123.157 12.542C123.157 13.478 123.463 14.306 124.075 15.026C124.687 15.71 125.623 16.376 126.883 17.024C128.143 17.636 129.727 18.266 131.635 18.914C132.859 19.346 134.029 19.886 135.145 20.534C136.297 21.182 137.323 21.974 138.223 22.91C139.159 23.81 139.879 24.89 140.383 26.15C140.923 27.374 141.193 28.796 141.193 30.416C141.193 32.252 140.833 33.89 140.113 35.33C139.393 36.77 138.403 37.994 137.143 39.002C135.883 39.974 134.461 40.712 132.877 41.216C131.329 41.756 129.691 42.026 127.963 42.026C125.659 42.026 123.499 41.594 121.483 40.73C119.503 39.83 117.775 38.624 116.299 37.112C114.823 35.6 113.671 33.962 112.843 32.198L118.351 28.31ZM45.952 74.04L55.552 46.2H66.304L47.424 93.496L33.344 64.056L19.2 93.496L0.384 46.2H11.136L20.864 74.04L33.344 43.96L45.952 74.04ZM65.532 76.28C65.532 73.208 66.236 70.52 67.644 68.216C69.0947 65.912 71.036 64.12 73.468 62.84C75.9427 61.56 78.7373 60.92 81.852 60.92C84.9667 60.92 87.74 61.56 90.172 62.84C92.6467 64.12 94.588 65.912 95.996 68.216C97.4467 70.52 98.172 73.208 98.172 76.28C98.172 79.3093 97.4467 81.9973 95.996 84.344C94.588 86.648 92.6467 88.44 90.172 89.72C87.74 91 84.9667 91.64 81.852 91.64C78.7373 91.64 75.9427 91 73.468 89.72C71.036 88.44 69.0947 86.648 67.644 84.344C66.236 81.9973 65.532 79.3093 65.532 76.28ZM73.98 76.28C73.98 77.944 74.3213 79.416 75.004 80.696C75.7293 81.9333 76.6893 82.9147 77.884 83.64C79.0787 84.3227 80.4013 84.664 81.852 84.664C83.3027 84.664 84.6253 84.3227 85.82 83.64C87.0147 82.9147 87.9533 81.9333 88.636 80.696C89.3613 79.416 89.724 77.944 89.724 76.28C89.724 74.616 89.3613 73.144 88.636 71.864C87.9533 70.584 87.0147 69.6027 85.82 68.92C84.6253 68.2373 83.3027 67.896 81.852 67.896C80.4013 67.896 79.0787 68.2373 77.884 68.92C76.6893 69.6027 75.7293 70.584 75.004 71.864C74.3213 73.144 73.98 74.616 73.98 76.28ZM104.327 76.28C104.327 73.208 105.031 70.52 106.439 68.216C107.89 65.912 109.831 64.12 112.263 62.84C114.738 61.56 117.532 60.92 120.647 60.92C123.762 60.92 126.535 61.56 128.967 62.84C131.442 64.12 133.383 65.912 134.791 68.216C136.242 70.52 136.967 73.208 136.967 76.28C136.967 79.3093 136.242 81.9973 134.791 84.344C133.383 86.648 131.442 88.44 128.967 89.72C126.535 91 123.762 91.64 120.647 91.64C117.532 91.64 114.738 91 112.263 89.72C109.831 88.44 107.89 86.648 106.439 84.344C105.031 81.9973 104.327 79.3093 104.327 76.28ZM112.775 76.28C112.775 77.944 113.116 79.416 113.799 80.696C114.524 81.9333 115.484 82.9147 116.679 83.64C117.874 84.3227 119.196 84.664 120.647 84.664C122.098 84.664 123.42 84.3227 124.615 83.64C125.81 82.9147 126.748 81.9333 127.431 80.696C128.156 79.416 128.519 77.944 128.519 76.28C128.519 74.616 128.156 73.144 127.431 71.864C126.748 70.584 125.81 69.6027 124.615 68.92C123.42 68.2373 122.098 67.896 120.647 67.896C119.196 67.896 117.874 68.2373 116.679 68.92C115.484 69.6027 114.524 70.584 113.799 71.864C113.116 73.144 112.775 74.616 112.775 76.28ZM167.314 41.08H175.634V91H167.314V41.08ZM143.122 76.28C143.122 72.9947 143.783 70.2213 145.106 67.96C146.429 65.656 148.178 63.9067 150.354 62.712C152.53 61.5173 154.834 60.92 157.266 60.92C159.741 60.92 161.917 61.5387 163.794 62.776C165.714 64.0133 167.207 65.784 168.274 68.088C169.383 70.3493 169.938 73.08 169.938 76.28C169.938 79.4373 169.383 82.168 168.274 84.472C167.207 86.776 165.714 88.5467 163.794 89.784C161.917 91.0213 159.741 91.64 157.266 91.64C154.834 91.64 152.53 91.0427 150.354 89.848C148.178 88.6533 146.429 86.904 145.106 84.6C143.783 82.296 143.122 79.5227 143.122 76.28ZM151.698 76.28C151.698 78.0293 152.061 79.544 152.786 80.824C153.511 82.104 154.493 83.0853 155.73 83.768C156.967 84.4507 158.29 84.792 159.698 84.792C160.935 84.792 162.13 84.472 163.282 83.832C164.477 83.1493 165.437 82.168 166.162 80.888C166.93 79.608 167.314 78.072 167.314 76.28C167.314 74.488 166.93 72.952 166.162 71.672C165.437 70.392 164.477 69.432 163.282 68.792C162.13 68.1093 160.935 67.768 159.698 67.768C158.29 67.768 156.967 68.1093 155.73 68.792C154.493 69.4747 153.511 70.456 152.786 71.736C152.061 73.016 151.698 74.5307 151.698 76.28Z"/></symbol>
    
    <symbol id="site-logo4" viewBox="0 0 500 500"><path d="M496.111,389.569c-0.146,0.051-14.798,4.975-30.353,4.975c-23.851,0-36.087-11.206-36.369-33.229 c0.281-22.099,12.52-33.304,36.371-33.304c15.515,0,30.205,4.923,30.352,4.974c0.297,0.102,0.604,0.151,0.908,0.154 c1.637,0.064,2.979-1.293,2.979-2.928c0-0.493-0.122-0.96-0.338-1.368c-0.745-1.815-4.662-10.681-13.448-19.583 c-8.898-9.016-24.682-19.766-49.338-19.766c-38.926,0-56.072,32.426-61.301,45.187H267.926v-52.522h54.456 c3.101,0,5.612-2.514,5.612-5.612v-67.204c0-3.1-2.513-5.612-5.612-5.612H178.607c-3.1,0-5.612,2.513-5.612,5.612v67.204 c0,3.101,2.513,5.612,5.612,5.612h56.241v52.521H124.409c-5.23-12.76-22.379-45.188-61.304-45.188 c-24.655,0-40.438,10.75-49.337,19.767c-9.644,9.774-13.42,19.499-13.576,19.909c-0.404,1.061-0.159,2.259,0.628,3.074 c0.787,0.817,1.976,1.106,3.051,0.742c0.146-0.049,14.838-4.974,30.351-4.974c23.853,0,36.09,11.205,36.372,33.228 c-0.282,22.098-12.518,33.304-36.37,33.305c-15.516,0.001-30.207-4.926-30.353-4.975c-1.073-0.362-2.264-0.076-3.051,0.742 c-0.788,0.817-1.032,2.016-0.628,3.075c0.156,0.408,3.932,10.135,13.577,19.909c8.899,9.019,24.682,19.768,49.337,19.768 c38.931,0,56.076-32.428,61.304-45.188h110.439v71.313c0,1.617,1.311,2.93,2.929,2.93h27.22c1.618,0,2.93-1.312,2.93-2.93v-71.313 h107.647c5.227,12.761,22.373,45.188,61.303,45.188c24.656,0,40.439-10.749,49.338-19.768 c9.646-9.774,13.421-19.501,13.577-19.909c0.404-1.06,0.16-2.259-0.628-3.075C498.375,389.493,497.187,389.202,496.111,389.569z"/><path d="M13.419,284.733c3.064,1.324,6.604,0.885,9.253-1.146c0.202-0.156,20.529-13.396,44.494-13.396 c19.049,0,35.253,7.918,48.163,27.748c1.733,2.664,4.665,4.186,7.716,4.186c0.13,0,0.26-0.003,0.391-0.01 c4.91-0.197,8.83-4.238,8.83-9.197c0-0.387-0.024-0.766-0.07-1.139c-1.833-30.457,5.501-72.672,31.594-100.493 c19.979-21.301,48.611-32.101,85.103-32.101l0.656,0.001l0.689-0.002c37.103,0,66.043,10.801,86.022,32.101 c32.056,34.176,31.538,83.763,30.617,98.148c-0.267,4.176,2.315,8.006,6.286,9.325c3.973,1.319,8.332-0.208,10.615-3.714 c12.479-19.169,28.043-25.686,46.261-25.686c24.464,0,45.992,13.905,46.191,14.067c2.626,2.134,6.213,2.655,9.337,1.354 c3.125-1.297,5.286-4.207,5.627-7.572c0.211-2.086,4.975-51.557-12.454-90.719c-2.014-4.526-7.252-6.647-11.85-4.795l-2.958,1.191 c-10.759,4.333-35.367,14.248-49.224,19.768c-2.064-3.989-5.228-9.267-10.059-16.453c-2.778-4.131-5.534-8.038-7.759-11.128 c8.741-8.38,25.46-24.478,37.435-36.45c3.041-3.041,3.571-7.781,1.279-11.419c-29.025-46.04-66.22-67.86-92.312-78.061 c-28.475-11.132-50.116-11.261-51.023-11.261c-4.603,0-8.496,3.397-9.12,7.958l-6.92,50.572h-53.355l-6.919-50.574 c-0.624-4.56-4.518-7.957-9.12-7.957c-0.907,0-22.549,0.127-51.024,11.259c-26.091,10.201-63.285,32.023-92.309,78.062 c-2.293,3.638-1.762,8.377,1.278,11.417c11.974,11.974,28.692,28.073,37.435,36.453c-2.226,3.09-4.983,6.997-7.759,11.128 c-4.832,7.186-7.994,12.464-10.059,16.453c-14.345-5.714-40.211-16.138-50.16-20.147l-2.02-0.814 c-4.598-1.852-9.836,0.268-11.851,4.796c-17.43,39.163-12.667,88.634-12.455,90.72C8.248,280.53,10.356,283.411,13.419,284.733z M33.939,202.236c16.224,6.536,45.954,18.499,52.528,21.027c2.83,1.089,8.254,2.413,12.496-8.09 c4.242-10.503,12.662-22.184,22.8-35.621c2.816-3.732,2.387-8.983-0.997-12.208c-0.234-0.225-21.298-20.302-37.664-36.472 c20.475-30.076,46.901-51.687,78.644-64.282c15.681-6.222,29.116-8.686,37.144-9.661l6.832,49.937 c0.625,4.559,4.519,7.956,9.121,7.956h69.418c4.602,0,8.496-3.397,9.121-7.956l6.832-49.94 C320.518,59.402,375.53,71.542,416,130.877c-16.365,16.165-37.427,36.242-37.662,36.467c-3.385,3.225-3.812,8.476-0.997,12.208 c10.139,13.434,18.956,26.224,22.801,35.621c3.844,9.397,9.663,9.181,12.496,8.09c6.586-2.531,36.181-14.441,52.528-21.026 c7.031,20.343,8.364,42.976,8.328,57.597c-10.624-5.773-26.192-8.883-43.455-8.883c-12.574,0-29.205,0.297-45.102,14.432 c-2.008-24.508-9.744-59.5-35.249-86.691c-23.599-25.16-57.059-37.917-99.451-37.917l-0.692,0.002h-0.652 c-41.782,0-74.933,12.756-98.531,37.915c-26.355,28.1-34.228,64.293-36.223,89.452c-16.498-14.838-33.863-16.364-46.972-16.364 c-16.518,0-31.35,3.433-41.552,8.598C25.543,245.778,26.821,222.834,33.939,202.236z"/></symbol>
    
    <symbol id="site-video" viewBox="0 0 50 50" style="stroke-width: 0px"><path d="M 25 2 C 12.309295 2 2 12.309295 2 25 C 2 37.690705 12.309295 48 25 48 C 37.690705 48 48 37.690705 48 25 C 48 12.309295 37.690705 2 25 2 z M 25 4 C 36.609824 4 46 13.390176 46 25 C 46 36.609824 36.609824 46 25 46 C 13.390176 46 4 36.609824 4 25 C 4 13.390176 13.390176 4 25 4 z M 17.958984 13.037109 A 1.0001 1.0001 0 0 0 16.958984 14.041016 L 16.958984 14.064453 A 1.0001 1.0001 0 0 0 16.958984 14.070312 L 17.042969 36.037109 A 1.0001 1.0001 0 0 0 18.546875 36.898438 L 37.503906 25.828125 A 1.0001 1.0001 0 0 0 37.498047 24.095703 L 18.457031 13.169922 L 18.457031 13.171875 A 1.0001 1.0001 0 0 0 17.958984 13.037109 z M 18.964844 15.769531 L 35.001953 24.972656 L 19.037109 34.294922 L 18.964844 15.769531 z"/></symbol>

    <symbol id="social-telegram" viewBox="0 0 34 34"><path d="M17.0871 27.4899C22.2172 27.4899 26.376 23.3311 26.376 18.201C26.376 13.0709 22.2172 8.91206 17.0871 8.91206C11.957 8.91206 7.79816 13.0709 7.79816 18.201C7.79816 23.3311 11.957 27.4899 17.0871 27.4899Z"/><path d="M11.7804 17.9976C11.7804 17.9976 16.3817 16.04 17.9775 15.3507C18.5892 15.075 20.6637 14.1927 20.6637 14.1927C20.6637 14.1927 21.6212 13.8068 21.5414 14.7442C21.5148 15.1302 21.3021 16.4811 21.0893 17.9424C20.7701 20.0103 20.4244 22.2711 20.4244 22.2711C20.4244 22.2711 20.3712 22.9052 19.919 23.0155C19.4669 23.1258 18.7222 22.6295 18.5892 22.5192C18.4828 22.4365 16.5944 21.1958 15.9029 20.5892C15.7167 20.4238 15.504 20.093 15.9295 19.707C16.887 18.7971 18.0306 17.6667 18.7222 16.9499C19.0413 16.619 19.3605 15.847 18.0306 16.7844C16.1423 18.1354 14.2805 19.4037 14.2805 19.4037C14.2805 19.4037 13.8549 19.6794 13.0571 19.4312C12.2591 19.1831 11.3282 18.8523 11.3282 18.8523C11.3282 18.8523 10.6899 18.4387 11.7804 17.9976Z" fill="white"/></symbol>
    
    <symbol id="social-vk" viewBox="0 0 34 34"><path fill-rule="evenodd" clip-rule="evenodd" d="M26.9206 11.866C27.0643 11.4169 26.9206 11.0869 26.2368 11.0869H23.9755C23.4005 11.0869 23.1355 11.372 22.9917 11.6863C22.9917 11.6863 21.8418 14.3133 20.2128 16.0197C19.6857 16.5137 19.4461 16.6708 19.1587 16.6708C19.0149 16.6708 18.8069 16.5137 18.8069 16.0646V11.866C18.8069 11.3271 18.64 11.0869 18.1608 11.0869H14.6074C14.2481 11.0869 14.032 11.337 14.032 11.5741C14.032 12.0849 14.8465 12.2027 14.9304 13.6397V16.7607C14.9304 17.4449 14.7986 17.569 14.5111 17.569C13.7445 17.569 11.8798 14.9303 10.7739 11.9109C10.5571 11.324 10.3398 11.0869 9.76184 11.0869H7.50058C6.8545 11.0869 6.72528 11.372 6.72528 11.6863C6.72528 12.2477 7.4919 15.0318 10.2948 18.7141C12.1634 21.2287 14.7961 22.5919 17.1917 22.5919C18.6291 22.5919 18.8069 22.2891 18.8069 21.7676V19.867C18.8069 19.2615 18.9431 19.1407 19.3982 19.1407C19.7336 19.1407 20.3086 19.2978 21.6502 20.5103C23.1834 21.9472 23.4361 22.5919 24.2985 22.5919H26.5598C27.2059 22.5919 27.5289 22.2891 27.3426 21.6916C27.1386 21.0961 26.4066 20.2322 25.4353 19.208C24.9082 18.6242 24.1177 17.9956 23.8781 17.6812C23.5427 17.2771 23.6385 17.0974 23.8781 16.7382C23.8781 16.7382 26.6331 13.1009 26.9206 11.866Z" fill="#fff" /><path fill-rule="evenodd" clip-rule="evenodd" d="M26.9206 11.866C27.0643 11.4169 26.9206 11.0869 26.2368 11.0869H23.9755C23.4005 11.0869 23.1355 11.372 22.9917 11.6863C22.9917 11.6863 21.8418 14.3133 20.2128 16.0197C19.6857 16.5137 19.4461 16.6708 19.1587 16.6708C19.0149 16.6708 18.8069 16.5137 18.8069 16.0646V11.866C18.8069 11.3271 18.64 11.0869 18.1608 11.0869H14.6074C14.2481 11.0869 14.032 11.337 14.032 11.5741C14.032 12.0849 14.8465 12.2027 14.9304 13.6397V16.7607C14.9304 17.4449 14.7986 17.569 14.5111 17.569C13.7445 17.569 11.8798 14.9303 10.7739 11.9109C10.5571 11.324 10.3398 11.0869 9.76184 11.0869H7.50058C6.8545 11.0869 6.72528 11.372 6.72528 11.6863C6.72528 12.2477 7.4919 15.0318 10.2948 18.7141C12.1634 21.2287 14.7961 22.5919 17.1917 22.5919C18.6291 22.5919 18.8069 22.2891 18.8069 21.7676V19.867C18.8069 19.2615 18.9431 19.1407 19.3982 19.1407C19.7336 19.1407 20.3086 19.2978 21.6502 20.5103C23.1834 21.9472 23.4361 22.5919 24.2985 22.5919H26.5598C27.2059 22.5919 27.5289 22.2891 27.3426 21.6916C27.1386 21.0961 26.4066 20.2322 25.4353 19.208C24.9082 18.6242 24.1177 17.9956 23.8781 17.6812C23.5427 17.2771 23.6385 17.0974 23.8781 16.7382C23.8781 16.7382 26.6331 13.1009 26.9206 11.866Z"/></symbol>
    
    <symbol id="social-whatsapp" viewBox="0 0 34 34"><path d="M8.5 24.8202L9.71971 20.289C8.73604 18.5239 8.42352 16.4642 8.8395 14.4878C9.25547 12.5114 10.372 10.7509 11.9843 9.52936C13.5966 8.30784 15.5964 7.70722 17.6168 7.83771C19.6372 7.96821 21.5426 8.82107 22.9835 10.2398C24.4244 11.6585 25.304 13.5479 25.4609 15.5613C25.6179 17.5747 25.0417 19.5771 23.838 21.2009C22.6343 22.8247 20.884 23.9611 18.9081 24.4016C16.9322 24.8421 14.8633 24.557 13.0811 23.5988L8.5 24.8202ZM13.302 21.9032L13.5853 22.0708C14.8762 22.834 16.3839 23.1498 17.8736 22.9691C19.3632 22.7883 20.751 22.1211 21.8208 21.0715C22.8905 20.0218 23.5822 18.6487 23.7878 17.166C23.9935 15.6833 23.7017 14.1745 22.9579 12.8745C22.2141 11.5745 21.0601 10.5565 19.6756 9.97905C18.2912 9.40161 16.7541 9.29718 15.304 9.68205C13.8538 10.0669 12.5721 10.9195 11.6584 12.1068C10.7447 13.2942 10.2505 14.7496 10.2527 16.2464C10.2515 17.4875 10.5956 18.7046 11.2468 19.7621L11.4244 20.0543L10.7425 22.5833L13.302 21.9032Z" fill="#fff"/><path d="M8.5 24.8202L9.71971 20.289C8.73604 18.5239 8.42352 16.4642 8.8395 14.4878C9.25547 12.5114 10.372 10.7509 11.9843 9.52936C13.5966 8.30784 15.5964 7.70722 17.6168 7.83771C19.6372 7.96821 21.5426 8.82107 22.9835 10.2398C24.4244 11.6585 25.304 13.5479 25.4609 15.5613C25.6179 17.5747 25.0417 19.5771 23.838 21.2009C22.6343 22.8247 20.884 23.9611 18.9081 24.4016C16.9322 24.8421 14.8633 24.557 13.0811 23.5988L8.5 24.8202ZM13.302 21.9032L13.5853 22.0708C14.8762 22.834 16.3839 23.1498 17.8736 22.9691C19.3632 22.7883 20.751 22.1211 21.8208 21.0715C22.8905 20.0218 23.5822 18.6487 23.7878 17.166C23.9935 15.6833 23.7017 14.1745 22.9579 12.8745C22.2141 11.5745 21.0601 10.5565 19.6756 9.97905C18.2912 9.40161 16.7541 9.29718 15.304 9.68205C13.8538 10.0669 12.5721 10.9195 11.6584 12.1068C10.7447 13.2942 10.2505 14.7496 10.2527 16.2464C10.2515 17.4875 10.5956 18.7046 11.2468 19.7621L11.4244 20.0543L10.7425 22.5833L13.302 21.9032Z"/><path fill-rule="evenodd" clip-rule="evenodd" d="M20.1785 17.4099C20.0124 17.2763 19.8179 17.1823 19.6099 17.1349C19.4018 17.0876 19.1857 17.0883 18.978 17.1369C18.6658 17.2662 18.4641 17.7548 18.2625 17.9991C18.2199 18.0576 18.1574 18.0987 18.0867 18.1146C18.016 18.1304 17.9419 18.12 17.8783 18.0853C16.7356 17.6389 15.7777 16.8202 15.1604 15.7622C15.1077 15.6962 15.0828 15.6124 15.0908 15.5284C15.0989 15.4444 15.1393 15.3668 15.2036 15.312C15.4285 15.0899 15.5937 14.8148 15.6838 14.5121C15.7038 14.1783 15.6271 13.8457 15.4629 13.5541C15.3359 13.1454 15.0943 12.7814 14.7666 12.5052C14.5976 12.4293 14.4101 12.4039 14.2269 12.432C14.0438 12.46 13.8726 12.5403 13.7342 12.6632C13.4938 12.8701 13.303 13.1281 13.1759 13.4182C13.0487 13.7083 12.9884 14.0232 12.9994 14.3397C13.0002 14.5174 13.0228 14.6943 13.0667 14.8665C13.1782 15.2803 13.3497 15.6757 13.5757 16.04C13.7388 16.3192 13.9167 16.5894 14.1087 16.8495C14.7328 17.704 15.5172 18.4295 16.4185 18.9858C16.8708 19.2684 17.3541 19.4983 17.8591 19.6707C18.3836 19.9079 18.9628 19.9989 19.535 19.9341C19.861 19.8849 20.1699 19.7565 20.4345 19.5602C20.6991 19.364 20.9113 19.1058 21.0524 18.8085C21.1353 18.629 21.1605 18.4282 21.1245 18.2338C21.038 17.8362 20.505 17.6015 20.1785 17.4099Z" fill="#fff"/><path fill-rule="evenodd" clip-rule="evenodd" d="M20.1785 17.4099C20.0124 17.2763 19.8179 17.1823 19.6099 17.1349C19.4018 17.0876 19.1857 17.0883 18.978 17.1369C18.6658 17.2662 18.4641 17.7548 18.2625 17.9991C18.2199 18.0576 18.1574 18.0987 18.0867 18.1146C18.016 18.1304 17.9419 18.12 17.8783 18.0853C16.7356 17.6389 15.7777 16.8202 15.1604 15.7622C15.1077 15.6962 15.0828 15.6124 15.0908 15.5284C15.0989 15.4444 15.1393 15.3668 15.2036 15.312C15.4285 15.0899 15.5937 14.8148 15.6838 14.5121C15.7038 14.1783 15.6271 13.8457 15.4629 13.5541C15.3359 13.1454 15.0943 12.7814 14.7666 12.5052C14.5976 12.4293 14.4101 12.4039 14.2269 12.432C14.0438 12.46 13.8726 12.5403 13.7342 12.6632C13.4938 12.8701 13.303 13.1281 13.1759 13.4182C13.0487 13.7083 12.9884 14.0232 12.9994 14.3397C13.0002 14.5174 13.0228 14.6943 13.0667 14.8665C13.1782 15.2803 13.3497 15.6757 13.5757 16.04C13.7388 16.3192 13.9167 16.5894 14.1087 16.8495C14.7328 17.704 15.5172 18.4295 16.4185 18.9858C16.8708 19.2684 17.3541 19.4983 17.8591 19.6707C18.3836 19.9079 18.9628 19.9989 19.535 19.9341C19.861 19.8849 20.1699 19.7565 20.4345 19.5602C20.6991 19.364 20.9113 19.1058 21.0524 18.8085C21.1353 18.629 21.1605 18.4282 21.1245 18.2338C21.038 17.8362 20.505 17.6015 20.1785 17.4099Z"/></symbol>
    
    <symbol id="social-whatsapp2" viewBox="0 0 512 512"><path d="M10.8,507.9c6.9-20.7,13.4-40.1,19.9-59.5c6.5-19.2,12.3-38.7,19.7-57.6c3.8-9.6,2.6-16.8-2.2-25.8   c-26.2-48.6-34-100.7-24.9-154.9c7.7-45.9,27.2-86.5,58.7-121C133.9,32.4,198.7,5.2,275.3,8.4c56.1,2.3,105.7,22.8,148,59.9   c39.4,34.5,65.1,77.4,77,128.4c9.6,41.1,8.5,82-3.3,122.5c-15,51.3-43.7,93.6-86.4,125.8c-59.3,44.8-125.8,58.7-198.3,44.6   c-21.8-4.2-42.6-12-62.2-22.6c-3.2-1.7-5.9-2.1-9.4-0.9c-37.2,12-74.5,23.9-111.7,35.8C23.4,503.7,17.7,505.6,10.8,507.9z    M74.1,445.2c2-0.5,2.9-0.7,3.8-1c23.3-7.4,46.6-14.9,70-22.1c2.2-0.7,5.2-0.1,7.3,0.9c10.1,5,19.8,11,30.2,15.4   c42.8,18.1,86.9,21,131.5,8.6c53.2-14.9,94-46.6,121.9-94.5c23.9-41,32.1-85.3,24.7-131.9c-9.4-59.3-39.8-105.9-90.1-139   C329.8,53,281.8,43.3,230.6,51.4c-44.1,7-81.8,27.1-112.9,59.3c-26.7,27.6-44.6,60.2-52.4,97.7c-11.1,53.7-2.9,104.5,26.9,150.8   c6,9.3,5.8,16.4,2.2,25.9C87.1,404.6,81,424.5,74.1,445.2z"/><path d="M389.3,321.8c-0.3,19.3-9.4,34-27.8,43.2c-18.1,9-36.5,11.3-55.4,3.9c-17-6.7-34.2-13.2-50.6-21.3   c-21.6-10.7-39.3-26.7-55.5-44.4c-17.9-19.6-33.1-41.4-45.6-64.7c-8.9-16.5-14.3-34-12.4-53.2c2-20.4,11.5-36.7,27.5-49   c3.2-2.4,8-3.5,12.1-3.9c5.3-0.4,10.6,0.4,15.9,0.8c4.4,0.4,6.8,3.5,8.3,7.1c3.9,9.6,7.4,19.2,11.1,28.9c2.5,6.5,4.4,13.3,7.4,19.6   c3.7,7.8,1.4,14.3-3.4,20.3c-4.1,5.1-8.4,10-13.1,14.4c-3.9,3.7-4.6,7.5-2,12c11.5,20.5,25.5,38.9,44,53.8   c12.2,9.8,25.7,17.1,39.7,23.9c4.1,2,8.1,1.7,11.3-2c6.9-7.9,13.9-15.7,20.7-23.7c4.4-5.1,6.6-6.1,12.5-3.1   c17.1,8.6,34,17.5,51,26.4C389,313,390,316.6,389.3,321.8z"/></symbol>
    
    <symbol id="social-ok" viewBox="0 0 34 34"><path d="M17.2472 8.5C15.152 8.5 13.4249 10.1988 13.4249 12.3223C13.4249 14.4175 15.1237 16.1446 17.2472 16.1446C19.3707 16.1446 21.0695 14.4458 21.0695 12.3223C21.0695 10.1988 19.3424 8.5 17.2472 8.5ZM17.2472 13.5964C16.5393 13.5964 15.9731 13.0301 15.9731 12.3223C15.9731 11.6145 16.5393 11.0482 17.2472 11.0482C17.955 11.0482 18.5213 11.6145 18.5213 12.3223C18.5213 13.0301 17.955 13.5964 17.2472 13.5964Z" fill="#fff"/><path d="M17.2472 8.5C15.152 8.5 13.4249 10.1988 13.4249 12.3223C13.4249 14.4175 15.1237 16.1446 17.2472 16.1446C19.3707 16.1446 21.0695 14.4458 21.0695 12.3223C21.0695 10.1988 19.3424 8.5 17.2472 8.5ZM17.2472 13.5964C16.5393 13.5964 15.9731 13.0301 15.9731 12.3223C15.9731 11.6145 16.5393 11.0482 17.2472 11.0482C17.955 11.0482 18.5213 11.6145 18.5213 12.3223C18.5213 13.0301 17.955 13.5964 17.2472 13.5964Z"/><path d="M21.9471 18.7211C20.9844 19.259 19.9368 19.6271 18.8892 19.797L21.8621 23.4494C22.2019 23.8741 22.2868 24.4687 21.9754 24.9217C21.4941 25.6578 20.4748 25.6862 19.9651 25.035L17.2188 21.6657L14.5007 25.035C14.2459 25.3464 13.9061 25.488 13.538 25.488C13.1699 25.488 12.8019 25.3181 12.5471 24.9783C12.2356 24.5536 12.2639 23.8458 12.6037 23.4211L15.5483 19.7404C14.5007 19.5422 13.4531 19.2024 12.5187 18.6645C11.9242 18.3247 11.726 17.5885 12.0657 16.9656C12.4055 16.3711 13.1699 16.1729 13.7645 16.5126C15.9163 17.7301 18.6061 17.7301 20.7862 16.5409C21.3808 16.2012 22.1453 16.4277 22.4567 17.0223C22.7682 17.6452 22.5417 18.3813 21.9471 18.7211Z" fill="#fff"/><path d="M21.9471 18.7211C20.9844 19.259 19.9368 19.6271 18.8892 19.797L21.8621 23.4494C22.2019 23.8741 22.2868 24.4687 21.9754 24.9217C21.4941 25.6578 20.4748 25.6862 19.9651 25.035L17.2188 21.6657L14.5007 25.035C14.2459 25.3464 13.9061 25.488 13.538 25.488C13.1699 25.488 12.8019 25.3181 12.5471 24.9783C12.2356 24.5536 12.2639 23.8458 12.6037 23.4211L15.5483 19.7404C14.5007 19.5422 13.4531 19.2024 12.5187 18.6645C11.9242 18.3247 11.726 17.5885 12.0657 16.9656C12.4055 16.3711 13.1699 16.1729 13.7645 16.5126C15.9163 17.7301 18.6061 17.7301 20.7862 16.5409C21.3808 16.2012 22.1453 16.4277 22.4567 17.0223C22.7682 17.6452 22.5417 18.3813 21.9471 18.7211Z"/></symbol>
    
    <symbol id="social-instagram" viewBox="0 0 34 34"><path fill-rule="evenodd" clip-rule="evenodd" d="M22.5573 12.4627C22.5573 13.0261 22.1005 13.4827 21.5373 13.4827C20.974 13.4827 20.5173 13.0261 20.5173 12.4627C20.5173 11.8993 20.974 11.4427 21.5373 11.4427C22.1007 11.4427 22.5573 11.8993 22.5573 12.4627ZM17 19.8333C15.4352 19.8333 14.1667 18.5648 14.1667 17C14.1667 15.4352 15.4352 14.1667 17 14.1667C18.5648 14.1667 19.8333 15.4352 19.8333 17C19.8333 18.5648 18.5648 19.8333 17 19.8333ZM17 12.6351C14.5893 12.6351 12.6351 14.5893 12.6351 17C12.6351 19.4107 14.5893 21.3649 17 21.3649C19.4107 21.3649 21.3649 19.4107 21.3649 17C21.3649 14.5893 19.4107 12.6351 17 12.6351ZM17 10.0316C19.2696 10.0316 19.5384 10.0402 20.4347 10.0811C21.2634 10.119 21.7135 10.2574 22.013 10.3739C22.4097 10.528 22.6929 10.7123 22.9904 11.0098C23.2879 11.3071 23.4721 11.5903 23.6263 11.9871C23.7426 12.2866 23.8811 12.7367 23.919 13.5655C23.9599 14.4618 23.9685 14.7306 23.9685 17.0003C23.9685 19.2699 23.9599 19.5387 23.919 20.4349C23.8811 21.2637 23.7428 21.7138 23.6263 22.0133C23.4721 22.41 23.2879 22.6931 22.9904 22.9906C22.693 23.2881 22.4099 23.4724 22.013 23.6265C21.7135 23.7429 21.2634 23.8814 20.4347 23.9193C19.5384 23.9602 19.2696 23.9688 17 23.9688C14.7302 23.9688 14.4614 23.9602 13.5652 23.9193C12.7365 23.8814 12.2864 23.743 11.9869 23.6265C11.5901 23.4724 11.307 23.2881 11.0095 22.9906C10.7121 22.6933 10.5278 22.4101 10.3736 22.0133C10.2572 21.7138 10.1187 21.2637 10.0809 20.4349C10.04 19.5386 10.0313 19.2698 10.0313 17.0003C10.0313 14.7306 10.04 14.4618 10.0809 13.5655C10.1187 12.7367 10.2571 12.2866 10.3736 11.9871C10.5278 11.5904 10.712 11.3073 11.0095 11.0098C11.3069 10.7123 11.59 10.528 11.9869 10.3739C12.2864 10.2575 12.7365 10.119 13.5652 10.0811C14.4616 10.0402 14.7304 10.0316 17 10.0316ZM17 8.5C14.6916 8.5 14.4021 8.50983 13.4955 8.55113C12.5908 8.59244 11.9728 8.73614 11.4322 8.94625C10.8732 9.1634 10.3992 9.45412 9.92667 9.92667C9.45412 10.3992 9.1634 10.8732 8.94625 11.4322C8.73614 11.9729 8.59244 12.5908 8.55113 13.4955C8.50983 14.4021 8.5 14.6916 8.5 17C8.5 19.3084 8.50983 19.5979 8.55113 20.5045C8.59244 21.4092 8.73614 22.0271 8.94625 22.5678C9.1634 23.1268 9.45412 23.6008 9.92667 24.0733C10.3992 24.5459 10.8732 24.8365 11.4322 25.0537C11.9729 25.2639 12.5908 25.4076 13.4955 25.4489C14.4021 25.4902 14.6916 25.5 17 25.5C19.3084 25.5 19.5979 25.4902 20.5045 25.4489C21.4092 25.4076 22.0271 25.2639 22.5678 25.0537C23.1268 24.8365 23.6008 24.5459 24.0733 24.0733C24.5459 23.6008 24.8365 23.1268 25.0537 22.5678C25.2639 22.0271 25.4076 21.4092 25.4489 20.5045C25.4902 19.5979 25.5 19.3084 25.5 17C25.5 14.6916 25.4902 14.4021 25.4489 13.4955C25.4076 12.5908 25.2639 11.9729 25.0537 11.4322C24.8365 10.8732 24.5459 10.3992 24.0733 9.92667C23.6008 9.45412 23.1268 9.16353 22.5678 8.94625C22.0271 8.73614 21.4092 8.59244 20.5045 8.55113C19.5979 8.50983 19.3084 8.5 17 8.5Z" fill="#fff"/><path fill-rule="evenodd" clip-rule="evenodd" d="M22.5573 12.4627C22.5573 13.0261 22.1005 13.4827 21.5373 13.4827C20.974 13.4827 20.5173 13.0261 20.5173 12.4627C20.5173 11.8993 20.974 11.4427 21.5373 11.4427C22.1007 11.4427 22.5573 11.8993 22.5573 12.4627ZM17 19.8333C15.4352 19.8333 14.1667 18.5648 14.1667 17C14.1667 15.4352 15.4352 14.1667 17 14.1667C18.5648 14.1667 19.8333 15.4352 19.8333 17C19.8333 18.5648 18.5648 19.8333 17 19.8333ZM17 12.6351C14.5893 12.6351 12.6351 14.5893 12.6351 17C12.6351 19.4107 14.5893 21.3649 17 21.3649C19.4107 21.3649 21.3649 19.4107 21.3649 17C21.3649 14.5893 19.4107 12.6351 17 12.6351ZM17 10.0316C19.2696 10.0316 19.5384 10.0402 20.4347 10.0811C21.2634 10.119 21.7135 10.2574 22.013 10.3739C22.4097 10.528 22.6929 10.7123 22.9904 11.0098C23.2879 11.3071 23.4721 11.5903 23.6263 11.9871C23.7426 12.2866 23.8811 12.7367 23.919 13.5655C23.9599 14.4618 23.9685 14.7306 23.9685 17.0003C23.9685 19.2699 23.9599 19.5387 23.919 20.4349C23.8811 21.2637 23.7428 21.7138 23.6263 22.0133C23.4721 22.41 23.2879 22.6931 22.9904 22.9906C22.693 23.2881 22.4099 23.4724 22.013 23.6265C21.7135 23.7429 21.2634 23.8814 20.4347 23.9193C19.5384 23.9602 19.2696 23.9688 17 23.9688C14.7302 23.9688 14.4614 23.9602 13.5652 23.9193C12.7365 23.8814 12.2864 23.743 11.9869 23.6265C11.5901 23.4724 11.307 23.2881 11.0095 22.9906C10.7121 22.6933 10.5278 22.4101 10.3736 22.0133C10.2572 21.7138 10.1187 21.2637 10.0809 20.4349C10.04 19.5386 10.0313 19.2698 10.0313 17.0003C10.0313 14.7306 10.04 14.4618 10.0809 13.5655C10.1187 12.7367 10.2571 12.2866 10.3736 11.9871C10.5278 11.5904 10.712 11.3073 11.0095 11.0098C11.3069 10.7123 11.59 10.528 11.9869 10.3739C12.2864 10.2575 12.7365 10.119 13.5652 10.0811C14.4616 10.0402 14.7304 10.0316 17 10.0316ZM17 8.5C14.6916 8.5 14.4021 8.50983 13.4955 8.55113C12.5908 8.59244 11.9728 8.73614 11.4322 8.94625C10.8732 9.1634 10.3992 9.45412 9.92667 9.92667C9.45412 10.3992 9.1634 10.8732 8.94625 11.4322C8.73614 11.9729 8.59244 12.5908 8.55113 13.4955C8.50983 14.4021 8.5 14.6916 8.5 17C8.5 19.3084 8.50983 19.5979 8.55113 20.5045C8.59244 21.4092 8.73614 22.0271 8.94625 22.5678C9.1634 23.1268 9.45412 23.6008 9.92667 24.0733C10.3992 24.5459 10.8732 24.8365 11.4322 25.0537C11.9729 25.2639 12.5908 25.4076 13.4955 25.4489C14.4021 25.4902 14.6916 25.5 17 25.5C19.3084 25.5 19.5979 25.4902 20.5045 25.4489C21.4092 25.4076 22.0271 25.2639 22.5678 25.0537C23.1268 24.8365 23.6008 24.5459 24.0733 24.0733C24.5459 23.6008 24.8365 23.1268 25.0537 22.5678C25.2639 22.0271 25.4076 21.4092 25.4489 20.5045C25.4902 19.5979 25.5 19.3084 25.5 17C25.5 14.6916 25.4902 14.4021 25.4489 13.4955C25.4076 12.5908 25.2639 11.9729 25.0537 11.4322C24.8365 10.8732 24.5459 10.3992 24.0733 9.92667C23.6008 9.45412 23.1268 9.16353 22.5678 8.94625C22.0271 8.73614 21.4092 8.59244 20.5045 8.55113C19.5979 8.50983 19.3084 8.5 17 8.5Z"/></symbol>
    
    <symbol id="social-phone" viewBox="0 0 16 16" style="stroke-width: 0px"><path d="M13.256 8.53329C13.0947 8.53329 12.926 8.48196 12.7647 8.44529C12.438 8.3733 12.1169 8.27771 11.804 8.15929C11.4638 8.03553 11.0899 8.04196 10.7541 8.17734C10.4184 8.31272 10.1446 8.56749 9.98536 8.89263L9.82403 9.22263C9.10976 8.82529 8.45341 8.3318 7.87336 7.75596C7.29752 7.17591 6.80403 6.51956 6.40669 5.80529L6.71469 5.59996C7.03983 5.44077 7.2946 5.16695 7.42998 4.8312C7.56536 4.49545 7.57179 4.1215 7.44803 3.78129C7.33159 3.46774 7.23605 3.14681 7.16202 2.82063C7.12536 2.65929 7.09602 2.49063 7.07403 2.32196C6.98497 1.80541 6.71442 1.33764 6.31108 1.00287C5.90774 0.6681 5.39814 0.48834 4.87402 0.49596H2.67403C2.35798 0.492993 2.04501 0.558157 1.75641 0.687016C1.46782 0.815875 1.21037 1.0054 1.00161 1.2427C0.792842 1.48 0.637657 1.75949 0.546616 2.06215C0.455576 2.36481 0.430817 2.68354 0.474025 2.99663C0.8647 6.06884 2.26778 8.92334 4.46164 11.1092C6.65549 13.2951 9.51508 14.6878 12.5887 15.0673H12.8674C13.4081 15.0681 13.9302 14.8697 14.334 14.51C14.566 14.3025 14.7514 14.0481 14.8778 13.7637C15.0042 13.4792 15.0688 13.1712 15.0674 12.86V10.66C15.0584 10.1506 14.8729 9.6601 14.5425 9.27225C14.2122 8.8844 13.7575 8.62322 13.256 8.53329ZM13.6227 12.9333C13.6226 13.0374 13.6003 13.1403 13.5573 13.2351C13.5143 13.33 13.4516 13.4146 13.3734 13.4833C13.2914 13.554 13.1956 13.6069 13.0921 13.6385C12.9885 13.67 12.8795 13.6796 12.772 13.6666C10.0256 13.3145 7.4746 12.058 5.52135 10.0955C3.5681 8.13296 2.32379 5.57601 1.98469 2.82796C1.97302 2.72054 1.98325 2.61187 2.01476 2.50851C2.04627 2.40516 2.09841 2.30926 2.16803 2.22663C2.23675 2.1484 2.32134 2.08571 2.41617 2.04272C2.511 1.99973 2.6139 1.97743 2.71803 1.97729H4.91802C5.08856 1.9735 5.25508 2.02927 5.38893 2.13501C5.52278 2.24075 5.61558 2.38984 5.65136 2.55663C5.68069 2.75707 5.71736 2.95507 5.76136 3.15063C5.84607 3.5372 5.95881 3.91709 6.09869 4.28729L5.07202 4.76396C4.98424 4.80424 4.90528 4.86145 4.83967 4.93233C4.77407 5.00321 4.72311 5.08634 4.68972 5.17697C4.65633 5.2676 4.64117 5.36392 4.64511 5.46042C4.64906 5.55692 4.67202 5.65169 4.71269 5.73929C5.76811 7.99998 7.58534 9.81721 9.84602 10.8726C10.0246 10.946 10.2248 10.946 10.4034 10.8726C10.4948 10.8399 10.5789 10.7894 10.6506 10.7239C10.7224 10.6584 10.7804 10.5794 10.8214 10.4913L11.276 9.46463C11.6551 9.6002 12.0421 9.71285 12.4347 9.80196C12.6302 9.84596 12.8282 9.88263 13.0287 9.91196C13.1955 9.94774 13.3446 10.0405 13.4503 10.1744C13.556 10.3082 13.6118 10.4748 13.608 10.6453L13.6227 12.9333Z"/></symbol>
    
    <symbol id="social-phone1" viewBox="0 0 34 34" fill="none"><path d="M32.0012 26.0749C30.7796 24.8442 27.8211 23.0482 26.3857 22.3243C24.5164 21.3828 24.3625 21.3059 22.8933 22.3974C21.9133 23.1258 21.2617 23.7766 20.1148 23.532C18.9678 23.2874 16.4754 21.9082 14.2931 19.7329C12.1107 17.5576 10.6514 14.9931 10.4061 13.8501C10.1607 12.7071 10.8222 12.0632 11.5438 11.081C12.5607 9.69642 12.4838 9.46566 11.6145 7.59651C10.9368 6.14273 9.08833 3.21208 7.85291 1.99675C6.53134 0.691421 6.53134 0.92218 5.67979 1.27601C4.98652 1.56768 4.32141 1.92222 3.69281 2.3352C2.46201 3.15285 1.77892 3.83206 1.30122 4.85278C0.823513 5.87351 0.608893 8.26648 3.07588 12.7478C5.54286 17.2292 7.27367 19.5206 10.8561 23.0928C14.4385 26.6649 17.1931 28.5856 21.2202 30.844C26.2018 33.6339 28.1126 33.09 29.1365 32.6131C30.1604 32.1362 30.8427 31.4593 31.662 30.2286C32.076 29.6011 32.4314 28.9368 32.7235 28.2441C33.0781 27.3957 33.3089 27.3957 32.0012 26.0749Z" stroke-width="2" stroke-miterlimit="10"/></symbol>
    
    <symbol id="social-email" viewBox="0 0 17 13" style="stroke-width: 0px"><path d="M14.4667 0.933228H2.73339C2.14991 0.933228 1.59033 1.16501 1.17775 1.57759C0.765171 1.99017 0.533386 2.54975 0.533386 3.13323V10.4666C0.533386 11.05 0.765171 11.6096 1.17775 12.0222C1.59033 12.4348 2.14991 12.6666 2.73339 12.6666H14.4667C15.0502 12.6666 15.6098 12.4348 16.0224 12.0222C16.4349 11.6096 16.6667 11.05 16.6667 10.4666V3.13323C16.6667 2.54975 16.4349 1.99017 16.0224 1.57759C15.6098 1.16501 15.0502 0.933228 14.4667 0.933228ZM15.2001 10.2832L11.6067 7.05656L15.2001 4.54123V10.2832ZM2.00005 4.54123L5.59339 7.05656L2.00005 10.2832V4.54123ZM6.82539 7.92189L8.18205 8.86789C8.30481 8.95305 8.45065 8.99869 8.60005 8.99869C8.74946 8.99869 8.8953 8.95305 9.01805 8.86789L10.3747 7.92189L14.0414 11.1999H3.17339L6.82539 7.92189ZM2.73339 2.39989H14.4667C14.6029 2.40099 14.7361 2.43998 14.8514 2.51252C14.9667 2.58505 15.0595 2.68825 15.1194 2.81056L8.60005 7.37189L2.08072 2.81056C2.14064 2.68825 2.23344 2.58505 2.34872 2.51252C2.46399 2.43998 2.59719 2.40099 2.73339 2.39989Z"/></symbol>
    
    <symbol id="banner-note1" viewBox="0 0 20 20" fill="none"><g clip-path="url(#clip0_60_2047)"><path d="M8.77196 2.07503C9.4048 1.38018 10.498 1.38018 11.1309 2.07503L11.9446 2.96856C12.2644 3.31973 12.7241 3.51013 13.1986 3.48795L14.4058 3.43153C15.3445 3.38766 16.1177 4.16075 16.0738 5.09954L16.0173 6.30676C15.9952 6.78121 16.1856 7.24087 16.5367 7.56069L17.4303 8.37442C18.1252 9.00726 18.1252 10.1005 17.4303 10.7333L16.5367 11.5471C16.1856 11.8669 15.9952 12.3265 16.0173 12.801L16.0738 14.0083C16.1177 14.947 15.3445 15.7201 14.4058 15.6763L13.1986 15.6198C12.7241 15.5976 12.2644 15.788 11.9446 16.1392L11.1309 17.0327C10.498 17.7276 9.4048 17.7276 8.77196 17.0327L7.95822 16.1392C7.63841 15.788 7.17875 15.5976 6.7043 15.6198L5.49706 15.6763C4.55828 15.7201 3.78519 14.947 3.82907 14.0083L3.88549 12.801C3.90766 12.3265 3.71727 11.8669 3.36609 11.5471L2.47256 10.7333C1.77772 10.1005 1.77772 9.00726 2.47256 8.37442L3.36609 7.56069C3.71727 7.24087 3.90766 6.78121 3.88549 6.30676L3.82907 5.09953C3.78519 4.16075 4.55828 3.38766 5.49707 3.43153L6.7043 3.48795C7.17875 3.51013 7.63841 3.31973 7.95822 2.96856L8.77196 2.07503Z" stroke="#FFB23F" stroke-width="2"/><path d="M7.95143 10.0539L9.6181 11.5539L12.9514 8.55389" stroke="#FFB23F" stroke-width="2" stroke-linecap="round" stroke-linejoin="round"/></g><defs><clipPath id="clip0_60_2047"><rect width="19" height="19" fill="white" transform="translate(0.372086 0.347473)"/></clipPath></defs></symbol>
    
    <symbol id="banner-note2" viewBox="0 0 19 20"><g clip-path="url(#clip0_60_2058)"><path fill-rule="evenodd" clip-rule="evenodd" d="M5.54981 8.19066C5.7963 7.96501 6.19594 7.96501 6.44244 8.19066C6.53448 8.27492 6.62461 8.35732 6.71286 8.43799C8.39956 9.9799 9.39838 10.893 9.90423 12.1896C10.1704 12.8718 10.2936 13.6355 10.3542 14.6119C10.4144 15.5817 10.4144 16.8014 10.4144 18.4032V18.4222C10.4144 18.7413 10.1318 19 9.7832 19C9.43461 19 9.15202 18.7413 9.15202 18.4222C9.15202 16.7975 9.15179 15.6106 9.09387 14.6775C9.03612 13.747 8.92265 13.1095 8.71541 12.5783C8.30716 11.5318 7.50998 10.8021 5.63606 9.08677C5.60756 9.06069 5.57881 9.03437 5.54981 9.00782C5.30332 8.78217 5.30332 8.41631 5.54981 8.19066Z" fill="#FFB23F" stroke="#FFB23F" stroke-width="0.5" stroke-linecap="round" stroke-linejoin="round"/><path fill-rule="evenodd" clip-rule="evenodd" d="M13.4951 5.43668C13.6601 5.71781 13.5449 6.06813 13.2378 6.21915C12.7073 6.48006 12.0119 6.97967 11.4383 8.68158C10.8527 10.4188 10.4144 13.3554 10.4144 18.4222C10.4144 18.7413 10.1318 19 9.7832 19C9.43461 19 9.15202 18.7413 9.15202 18.4222C9.15202 13.3193 9.5903 10.2448 10.232 8.34084C10.8857 6.4016 11.7683 5.63 12.6404 5.20111C12.9475 5.05009 13.3302 5.15556 13.4951 5.43668Z" fill="#FFB23F" stroke="#FFB23F" stroke-width="0.5" stroke-linecap="round" stroke-linejoin="round"/><path fill-rule="evenodd" clip-rule="evenodd" d="M11.5186 3.68503C10.142 4.74826 9.35295 6.12077 9.13635 6.99378C9.05914 7.30498 8.72098 7.49995 8.38104 7.42927C8.04111 7.35858 7.82813 7.04901 7.90534 6.73782C8.18603 5.60648 9.12985 4.01803 10.7045 2.80177C12.3005 1.56904 14.5629 0.705986 17.449 1.09374C17.7939 1.14007 18.0325 1.43359 17.9819 1.74933C17.9312 2.06507 17.6106 2.28346 17.2657 2.23713C14.7811 1.90331 12.8738 2.63827 11.5186 3.68503Z" fill="#FFB23F" stroke="#FFB23F" stroke-width="0.5" stroke-linecap="round" stroke-linejoin="round"/><path fill-rule="evenodd" clip-rule="evenodd" d="M17.2038 1.09391C17.5486 1.04689 17.8697 1.26464 17.9211 1.58027C18.1265 2.84265 17.935 4.51912 17.2972 6.00781C16.6612 7.49227 15.531 8.89836 13.7701 9.43627C13.4394 9.53728 13.0819 9.37376 12.9716 9.07105C12.8612 8.76834 13.0398 8.44106 13.3705 8.34005C14.6361 7.95344 15.5573 6.9038 16.122 5.58585C16.6848 4.27211 16.8432 2.79947 16.6725 1.75057C16.6212 1.43493 16.859 1.14094 17.2038 1.09391Z" fill="#FFB23F" stroke="#FFB23F" stroke-width="0.5" stroke-linecap="round" stroke-linejoin="round"/><path fill-rule="evenodd" clip-rule="evenodd" d="M5.98496 5.02138C6.85751 5.4182 7.38019 6.17802 7.95851 7.0822C8.13776 7.36245 8.53221 7.47775 8.83954 7.33972C9.14686 7.2017 9.25068 6.86261 9.07143 6.58236L9.06556 6.57318C8.52018 5.72048 7.81392 4.61625 6.5124 4.02435C5.1705 3.41409 3.38918 3.41967 0.856161 4.32436C0.535201 4.439 0.399454 4.76751 0.552959 5.05812C0.706466 5.34873 1.0911 5.49138 1.41206 5.37675C3.80124 4.52343 5.1481 4.64081 5.98496 5.02138Z" fill="#FFB23F" stroke="#FFB23F" stroke-width="0.5" stroke-linecap="round" stroke-linejoin="round"/><path fill-rule="evenodd" clip-rule="evenodd" d="M0.990958 4.23952C0.641425 4.27608 0.411884 4.55722 0.478263 4.86748C0.503911 4.98735 0.531564 5.12244 0.561831 5.2703C0.765039 6.26299 1.08609 7.83137 1.70926 9.23694C2.40751 10.8118 3.62478 12.4883 5.79052 12.6303C6.1463 12.6536 6.43597 12.42 6.43751 12.1084C6.43906 11.7969 6.1519 11.5255 5.79612 11.5021C4.50083 11.4172 3.58126 10.4159 2.90581 8.89238C2.33526 7.60549 2.03886 6.16381 1.8328 5.16153C1.80132 5.00843 1.77195 4.86558 1.74403 4.7351C1.67766 4.42484 1.34049 4.20297 0.990958 4.23952Z" fill="#FFB23F" stroke="#FFB23F" stroke-width="0.5" stroke-linecap="round" stroke-linejoin="round"/></g><defs><clipPath id="clip0_60_2058"><rect width="18.49" height="18.49" fill="white" transform="translate(0.0253906 0.793579)"/></clipPath></defs></symbol>
    
    <symbol id="banner-note3" viewBox="0 0 22 22"><path fill-rule="evenodd" clip-rule="evenodd" d="M3.00001 1C1.89543 1 1 1.8817 1 2.96933V11.8313V14.5814C1 15.8972 2.61571 16.5562 3.56067 15.6258L6.41423 12.816H13C14.6569 12.816 16 11.4934 16 9.86199V3.954C16 2.32255 14.6569 1 13 1H3.00001ZM3.00001 2.96933L13 2.96933C13.5523 2.96933 14 3.41018 14 3.954V9.86199C14 10.4058 13.5523 10.8467 13 10.8467H6.00001H5.5858L5.29291 11.1351L3.00001 13.3928V11.8313V2.96933ZM8.99997 16.7546C7.59747 16.7546 6.41975 15.807 6.0912 14.5265L6.82839 13.8006H7.99996C7.99996 14.3445 8.44768 14.7853 8.99997 14.7853H16H16.4142L16.7071 15.0737L19 17.3314V15.77V6.90799H17V4.93866H19C20.1046 4.93866 21 5.82036 21 6.90799V15.77V18.52C21 19.8359 19.3843 20.4949 18.4393 19.5644L15.5858 16.7546H8.99997Z" fill="#FFB23F"/></symbol>
    
    <symbol id="banner-note4" viewBox="0 0 19 20"><path fill-rule="evenodd" clip-rule="evenodd" d="M6.77778 1C5.05956 1 3.66667 2.4103 3.66667 4.15C3.66667 4.63312 3.77409 5.09084 3.96606 5.5H2.77778C1.79594 5.5 1 6.30589 1 7.3V10V10.9H1.88889V18.1V19H2.77778H15.2222H16.1111V18.1V10.9H17V10V7.3C17 6.30589 16.2041 5.5 15.2222 5.5H14.0339C14.2259 5.09084 14.3333 4.63312 14.3333 4.15C14.3333 2.4103 12.9404 1 11.2222 1C10.3517 1 9.56467 1.36201 9 1.94546C8.43533 1.36201 7.64831 1 6.77778 1ZM8.11111 5.5H6.77778C6.0414 5.5 5.44444 4.89558 5.44444 4.15C5.44444 3.40442 6.0414 2.8 6.77778 2.8C7.51416 2.8 8.11111 3.40442 8.11111 4.15V5.5ZM11.2222 5.5H9.88889V4.15C9.88889 3.40442 10.4858 2.8 11.2222 2.8C11.9586 2.8 12.5556 3.40442 12.5556 4.15C12.5556 4.89558 11.9586 5.5 11.2222 5.5ZM9.88889 7.3H11.2222H15.2222V9.1H9.88889V7.3ZM8.11111 7.3H6.77778H2.77778V9.1H8.11111V7.3ZM8.11111 10.9H3.66667V17.2H8.11111V10.9ZM9.88889 17.2H14.3333V10.9H9.88889V17.2Z" fill="#FFB23F"/></symbol>
    
    <symbol id="advantage-ico1" viewBox="0 0 29 30"><path d="M9.04831 2.04756C9.20279 3.35924 8.48516 4.47009 8.48516 4.47009C8.21412 4.9237 4.80152 9.9457 6.65668 15.6039C7.73663 18.5699 9.61005 20.14 10.1521 20.6273C10.9203 21.2536 11.5888 20.9699 11.5888 20.9699C11.5888 20.9699 16.1277 19.4532 16.7175 14.1307C17.3593 8.33209 14.1588 2.56718 7.72119 0C7.72119 0 8.92192 0.96901 9.04831 2.04756Z" fill="#518581"/><path d="M13.7529 21.4068C9.23929 23.1496 8.94297 27.2293 8.94297 27.2293C8.94297 27.2293 8.84607 27.8458 9.5651 28.3261C10.1142 28.6519 11.909 29.8161 14.743 29.9945C20.102 30.1728 23.7155 26.1872 24.0497 25.8586C24.0497 25.8586 24.8572 25.009 26.0369 24.8236C27.0059 24.6719 28.1224 25.4261 28.1224 25.4261C25.5257 22.1511 21.9151 20.5571 18.289 20.5571C16.7568 20.5557 15.2163 20.8422 13.7529 21.4068Z" fill="#518581"/><path d="M1.23443 15.4748C1.58693 16.2725 1.34819 17.1137 1.34819 17.1137C1.26393 17.4507 0.0856661 21.2832 2.35371 24.4922C3.61062 26.1564 5.09643 26.7827 5.53459 26.9835C6.13987 27.2321 6.50641 26.9203 6.50641 26.9203C6.50641 26.9203 9.0778 25.0806 8.41635 21.6118C7.69591 17.8271 4.55856 14.8119 0 14.4412C0 14.4412 0.945136 14.8189 1.23443 15.4748Z" fill="#518581"/></symbol>
    
    <symbol id="advantage-ico2" viewBox="0 0 33 30"><path fill-rule="evenodd" clip-rule="evenodd" d="M5.7151 5.71509C4.01918 7.411 3.01413 10.003 3.01413 13.5931C3.01413 18.0837 4.27244 21.3791 6.44667 23.5534C8.62091 25.7274 11.9163 26.9859 16.4069 26.9859C20.8974 26.9859 24.1928 25.7274 26.3671 23.5531C28.5414 21.379 29.7996 18.0836 29.7996 13.593C29.7996 12.7607 30.4745 12.0859 31.3067 12.0859C32.1391 12.0859 32.8137 12.7607 32.8137 13.593C32.8137 18.6384 31.3901 22.7929 28.4985 25.6845C25.6068 28.5764 21.4523 30 16.4069 30C11.3616 30 7.20707 28.5764 4.31536 25.6845C1.42367 22.7929 0 18.6385 0 13.5931C0 9.44817 1.17043 5.99714 3.58377 3.58378C5.99713 1.17043 9.44816 0 13.5931 0C17.738 0 21.1891 1.17041 23.6024 3.58373C26.0158 5.99706 27.186 9.4481 27.186 13.593C27.186 16.8303 26.2709 19.5722 24.3397 21.5034C22.4086 23.4345 19.6667 24.3498 16.4294 24.3498C13.1921 24.3498 10.4502 23.4347 8.51901 21.5036C6.58785 19.5724 5.67269 16.8305 5.67269 13.5932C5.67269 11.2888 6.32547 9.27559 7.76109 7.83998C9.19671 6.40438 11.2099 5.75157 13.5144 5.75157C15.8188 5.75157 17.8319 6.40428 19.2675 7.83985C20.7031 9.27545 21.3558 11.2886 21.3558 13.593C21.3558 14.9944 20.957 16.3021 20.0011 17.258C19.0453 18.2138 17.7376 18.6127 16.3362 18.6127C14.9347 18.6127 13.6271 18.2138 12.6712 17.258C11.7153 16.3021 11.3165 14.9944 11.3165 13.593C11.3165 12.7607 11.9913 12.0859 12.8236 12.0859C13.6559 12.0859 14.3307 12.7607 14.3307 13.593C14.3307 14.4396 14.5641 14.8883 14.8025 15.1267C15.0409 15.3651 15.4895 15.5985 16.3362 15.5985C17.1828 15.5985 17.6314 15.3651 17.8698 15.1267C18.1082 14.8883 18.3417 14.4396 18.3417 13.593C18.3417 11.8433 17.8543 10.6892 17.1362 9.97118C16.4181 9.2531 15.2641 8.7657 13.5144 8.7657C11.7647 8.7657 10.6106 9.25314 9.89242 9.9713C9.17424 10.6895 8.68682 11.8436 8.68682 13.5932C8.68682 16.2758 9.43661 18.1585 10.6503 19.3722C11.864 20.5859 13.7469 21.3356 16.4294 21.3356C19.1119 21.3356 20.9948 20.5858 22.2085 19.3721C23.4222 18.1584 24.1719 16.2755 24.1719 13.593C24.1719 10.0029 23.1669 7.41091 21.4711 5.71504C19.7752 4.01917 17.1833 3.01414 13.5931 3.01414C10.003 3.01414 7.41099 4.01919 5.7151 5.71509Z" fill="#518581"/></symbol>
    
    <symbol id="advantage-ico3" viewBox="0 0 26 21"><path d="M25.0714 14.1429H24.4286V9.79954C24.4286 9.28929 24.2236 8.79911 23.8621 8.4375L19.8482 4.42365C19.4866 4.06204 18.9964 3.85714 18.4862 3.85714H16.7143V1.92857C16.7143 0.863828 15.8504 0 14.7857 0H4.5C3.43527 0 2.57143 0.863828 2.57143 1.92857V3.85714H0.321429C0.144643 3.85714 0 4.00179 0 4.17857V4.82143C0 4.99821 0.144643 5.14286 0.321429 5.14286H11.25C11.4268 5.14286 11.5714 5.2875 11.5714 5.46429V6.10714C11.5714 6.28393 11.4268 6.42857 11.25 6.42857H1.60714C1.43036 6.42857 1.28571 6.57321 1.28571 6.75V7.39286C1.28571 7.56964 1.43036 7.71429 1.60714 7.71429H9.96429C10.1411 7.71429 10.2857 7.85893 10.2857 8.03571V8.67857C10.2857 8.85536 10.1411 9 9.96429 9H0.321429C0.144643 9 0 9.14464 0 9.32143V9.96429C0 10.1411 0.144643 10.2857 0.321429 10.2857H8.67857C8.85536 10.2857 9 10.4304 9 10.6071V11.25C9 11.4268 8.85536 11.5714 8.67857 11.5714H2.57143V16.7143C2.57143 18.8438 4.29911 20.5714 6.42857 20.5714C8.55803 20.5714 10.2857 18.8438 10.2857 16.7143H15.4286C15.4286 18.8438 17.1562 20.5714 19.2857 20.5714C21.4152 20.5714 23.1429 18.8438 23.1429 16.7143H25.0714C25.425 16.7143 25.7143 16.425 25.7143 16.0714V14.7857C25.7143 14.4321 25.425 14.1429 25.0714 14.1429ZM6.42857 18.6429C5.36384 18.6429 4.5 17.779 4.5 16.7143C4.5 15.6495 5.36384 14.7857 6.42857 14.7857C7.4933 14.7857 8.35714 15.6495 8.35714 16.7143C8.35714 17.779 7.4933 18.6429 6.42857 18.6429ZM19.2857 18.6429C18.221 18.6429 17.3571 17.779 17.3571 16.7143C17.3571 15.6495 18.221 14.7857 19.2857 14.7857C20.3504 14.7857 21.2143 15.6495 21.2143 16.7143C21.2143 17.779 20.3504 18.6429 19.2857 18.6429ZM22.5 10.2857H16.7143V5.78571H18.4862L22.5 9.79954V10.2857Z" fill="#518581"/></symbol>
    
    <symbol id="reviews-ico1" viewBox="0 0 55 39"><path d="M9.77157 19.2214L14.9365 18.3857C17.3562 18.3857 19.4966 19.2214 21.3579 20.8929C23.3122 22.4714 24.2893 24.8393 24.2893 27.9964C24.2893 31.0607 23.2656 33.6607 21.2183 35.7964C19.1709 37.9321 16.286 39 12.5635 39C8.93401 39 5.90947 37.6071 3.48985 34.8214C1.16328 32.0357 0 28.4607 0 24.0964C0 19.6393 1.67513 15.2286 5.02538 10.8643C8.4687 6.49999 13.3545 2.87857 19.6827 0L20.6599 2.36785C11.912 7.19642 7.53807 12.0714 7.53807 16.9929C7.53807 18.4786 8.28257 19.2214 9.77157 19.2214ZM40.4822 19.2214L45.6472 18.3857C48.0668 18.3857 50.2073 19.2214 52.0685 20.8929C54.0228 22.4714 55 24.8393 55 27.9964C55 31.0607 53.9763 33.6607 51.9289 35.7964C49.8815 37.9321 46.9966 39 43.2741 39C39.6447 39 36.6201 37.6071 34.2005 34.8214C31.8739 32.0357 30.7107 28.4607 30.7107 24.0964C30.7107 19.6393 32.3858 15.2286 35.736 10.8643C39.1794 6.49999 44.0651 2.87857 50.3934 0L51.3706 2.36785C42.6227 7.19642 38.2487 12.0714 38.2487 16.9929C38.2487 18.4786 38.9932 19.2214 40.4822 19.2214Z"/></symbol>
    
    <symbol id="reviews-ico2" viewBox="0 0 23 21"><path d="M11.5 0L14.0819 7.9463H22.4371L15.6776 12.8574L18.2595 20.8037L11.5 15.8926L4.74047 20.8037L7.32238 12.8574L0.56285 7.9463H8.91809L11.5 0Z"/></symbol>
    
    <symbol id="how_icon-01" viewBox="0 0 51.68 34.06"><path fill="#FAE348" stroke="#FAE348" stroke-width=".826" stroke-miterlimit="10" d="M.41 12.77c.26-.7.78-.97 1.5-.95.94.02 1.88.01 2.84.01V9.01C4.2 9 3.68 9.01 3.15 9c-.8-.02-1.33-.5-1.33-1.18 0-.65.51-1.13 1.28-1.18.28-.02.56 0 .84 0h.83c0-1.24.01-2.43 0-3.62 0-.64.15-1.21.57-1.7C5.81.77 6.4.46 7.11.44 7.66.43 8.2.43 8.75.43c7.67 0 15.34.04 23-.02 2.48-.02 4.71.63 6.77 1.92 4.23 2.66 7.51 6.2 9.73 10.7.78 1.58 1.07 3.3 1.43 4.99.54 2.51 1.03 5.02 1.53 7.54.31 1.53-.74 2.86-2.31 2.9-1.09.03-2.19.01-3.28.01h-.53c-.78 3.68-3.77 5.19-6.08 5.18-2.32-.01-5.28-1.55-6.03-5.16h-10.8c-.35 1.79-1.26 3.23-2.8 4.21-1.09.7-2.29 1.01-3.59.93-2.37-.14-5.01-1.81-5.68-5.17H7.49c-1.74 0-2.71-.96-2.72-2.7V14.17h-2.1c-.31 0-.63-.01-.94 0-.67.02-1.07-.34-1.32-.92v-.48zm6.77 1.41V26.1c.96 0 1.89.01 2.81-.01.12 0 .29-.17.35-.3.26-.51.42-1.09.75-1.56 1.43-2.05 3.43-3.01 5.91-2.66 2.43.35 4.09 1.76 4.9 4.1.12.34.28.45.63.44 3.3-.01 6.59-.02 9.89 0 .52 0 .76-.13.93-.66 1.08-3.2 4.97-4.86 8.05-3.48 1.68.75 2.81 1.99 3.41 3.73.05.15.19.37.3.37 1.25.03 2.51.02 3.8.02-.61-2.95-1.2-5.85-1.8-8.76H33.6c-1.26 0-1.63-.38-1.64-1.62V2.85H7.16v3.79h.57c1.9 0 3.81-.02 5.71.02.4.01.85.16 1.17.39.39.28.42.79.23 1.23-.18.51-.61.72-1.16.72h-6.5v2.82h14.03c1.02 0 1.57.42 1.57 1.18 0 .77-.53 1.17-1.57 1.17H7.8c-.2.01-.39.01-.62.01zm39.27.76C44.86 10.15 38.4 3.91 34.37 3.08v11.86h12.08zm-30.3 16.33c2.04.01 3.74-1.68 3.73-3.71 0-2.03-1.72-3.74-3.74-3.72-2.03.02-3.69 1.68-3.7 3.7-.02 2.04 1.66 3.72 3.71 3.73zm22.86 0c2.04.02 3.73-1.66 3.74-3.7.01-2.03-1.69-3.73-3.72-3.73-2.01 0-3.68 1.66-3.72 3.69-.04 2.01 1.65 3.72 3.7 3.74z"></path></symbol>
    
    <symbol id="how_icon-02" viewBox="0 0 40.34 38.79"><g fill="#FAE348"><path d="M3.19 20.69H0c1.72-3.09 3.41-6.15 5.12-9.24 1.7 3.08 3.38 6.15 5.08 9.24H6.93c.09.61.15 1.2.27 1.77.67 3.32 2.2 6.16 4.68 8.47 2.2 2.05 4.79 3.35 7.78 3.76 4.45.61 8.38-.62 11.73-3.6 2.73-2.43 4.37-5.5 4.93-9.11.69-4.41-.26-8.47-2.92-12.07-2.21-2.98-5.15-4.89-8.8-5.68-.96-.21-1.94-.27-2.92-.3-.8-.02-1.36-.44-1.67-1.16-.51-1.17.17-2.53 1.38-2.73.43-.07.88-.04 1.31-.02 3.33.19 6.39 1.22 9.14 3.11 4.03 2.78 6.61 6.58 7.85 11.3.6 2.28.78 4.61.53 6.96-.62 5.64-3.13 10.26-7.64 13.74-2.32 1.79-4.95 2.92-7.84 3.41-6.61 1.12-12.99-1.5-17.1-6.51-2.34-2.85-3.76-6.12-4.29-9.77-.04-.26-.07-.52-.1-.77-.01-.26-.03-.52-.06-.8z"></path><path d="M23.85 14.83v5.14c0 .16-.04.28-.16.4a714.38 714.38 0 0 0-6.01 6.27c-.73.77-1.77.76-2.47.31-.86-.55-1.09-1.84-.48-2.74.08-.12.17-.23.27-.33 1.64-1.71 3.27-3.42 4.91-5.12.11-.12.16-.23.16-.4-.01-2.87 0-5.73 0-8.6 0-.8.32-1.45 1.04-1.83 1.14-.6 2.54.16 2.7 1.45.02.16.03.33.03.49.01 1.66.01 3.31.01 4.96zm4.33-2.91c0-.73.57-1.31 1.28-1.31.71.01 1.27.6 1.26 1.33-.01.74-.57 1.31-1.28 1.3-.71 0-1.26-.58-1.26-1.32zm0 14.64c0-.73.56-1.32 1.27-1.32s1.27.58 1.27 1.31c0 .73-.56 1.32-1.27 1.32-.69.01-1.27-.59-1.27-1.31zm2.55-7.24c0-.74.57-1.32 1.28-1.31.71.01 1.27.59 1.26 1.33-.01.74-.56 1.31-1.28 1.3-.72 0-1.26-.57-1.26-1.32zm-7.72 11.02c0 .74-.56 1.32-1.27 1.32s-1.27-.58-1.27-1.32c0-.74.55-1.31 1.27-1.31s1.27.57 1.27 1.31z"></path></g></symbol>
    
    <symbol id="how_icon-03" viewBox="0 0 35.66 37.13"><path fill="none" stroke="#FAE348" stroke-width="2.785" stroke-linecap="round" stroke-linejoin="round" stroke-miterlimit="10" d="M28.55 35.74H1.39V1.39h22.25l4.91 4.12z"></path><path fill="none" stroke="#FAE348" stroke-width="2.785" stroke-linecap="round" stroke-linejoin="round" stroke-miterlimit="10" d="M22.13 1.8v4.91h5.88"></path><path fill="#FAE348" d="M34.81 32.53h-1.2a.85.85 0 0 1-.85-.85V9.34c0-.47.38-.85.85-.85h1.2c.47 0 .85.38.85.85v22.34c0 .47-.39.85-.85.85zm0 3.49h-1.2a.85.85 0 0 1-.85-.85v-2.19h2.9v2.19c0 .47-.39.85-.85.85z"></path><path fill="none" stroke="#FAE348" stroke-width="2.785" stroke-linecap="round" stroke-linejoin="round" stroke-miterlimit="10" d="M4.87 11.55h12.79m1.82 18.37h5.59M4.87 15.35h20.2M4.87 19h20.2"></path><ellipse cx="7.24" cy="27.98" rx="2.26" ry="2.06" fill="none" stroke="#FAE348" stroke-width="2.785" stroke-linecap="round" stroke-linejoin="round" stroke-miterlimit="10"></ellipse><path fill="none" stroke="#FAE348" stroke-width="2.785" stroke-linecap="round" stroke-linejoin="round" stroke-miterlimit="10" d="M9.22 31.71H5.25l.65-1.73h2.67z"></path></symbol>
</svg>